<svg width="131" height="27" viewBox="0 0 131 27" fill="none" xmlns="http://www.w3.org/2000/svg">
<rect x="0.5" width="130" height="27" rx="8" fill="#1FD7C1"/>
<path d="M26.9091 19L26.9091 7.36364L30.9773 7.36364C31.7879 7.36364 32.4564 7.50379 32.983 7.78409C33.5095 8.06061 33.9015 8.43371 34.1591 8.90341C34.4167 9.36932 34.5455 9.88636 34.5455 10.4545C34.5455 10.9545 34.4564 11.3674 34.2784 11.6932C34.1042 12.0189 33.8731 12.2765 33.5852 12.4659C33.3011 12.6553 32.9924 12.7955 32.6591 12.8864V13C33.0152 13.0227 33.3731 13.1477 33.733 13.375C34.0928 13.6023 34.3939 13.928 34.6364 14.3523C34.8788 14.7765 35 15.2955 35 15.9091C35 16.4924 34.8674 17.017 34.6023 17.483C34.3371 17.9489 33.9186 18.3182 33.3466 18.5909C32.7746 18.8636 32.0303 19 31.1136 19H26.9091ZM28.3182 17.75H31.1136C32.0341 17.75 32.6875 17.572 33.0739 17.2159C33.464 16.8561 33.6591 16.4205 33.6591 15.9091C33.6591 15.5152 33.5587 15.1515 33.358 14.8182C33.1572 14.4811 32.8712 14.2121 32.5 14.0114C32.1288 13.8068 31.6894 13.7045 31.1818 13.7045L28.3182 13.7045L28.3182 17.75ZM28.3182 12.4773H30.9318C31.3561 12.4773 31.7386 12.3939 32.0795 12.2273C32.4242 12.0606 32.697 11.8258 32.8977 11.5227C33.1023 11.2197 33.2045 10.8636 33.2045 10.4545C33.2045 9.94318 33.0265 9.50947 32.6705 9.15341C32.3144 8.79356 31.75 8.61364 30.9773 8.61364H28.3182V12.4773ZM39.7017 19.2045C39.1487 19.2045 38.6468 19.1004 38.196 18.892C37.7453 18.6799 37.3873 18.375 37.1222 17.9773C36.857 17.5758 36.7244 17.0909 36.7244 16.5227C36.7244 16.0227 36.8229 15.6174 37.0199 15.3068C37.2169 14.9924 37.4801 14.7462 37.8097 14.5682C38.1392 14.3902 38.5028 14.2576 38.9006 14.1705C39.3021 14.0795 39.7055 14.0076 40.1108 13.9545C40.6411 13.8864 41.071 13.8352 41.4006 13.8011C41.7339 13.7633 41.9763 13.7008 42.1278 13.6136C42.2831 13.5265 42.3608 13.375 42.3608 13.1591V13.1136C42.3608 12.553 42.2074 12.1174 41.9006 11.8068C41.5975 11.4962 41.1373 11.3409 40.5199 11.3409C39.8797 11.3409 39.3778 11.4811 39.0142 11.7614C38.6506 12.0417 38.3949 12.3409 38.2472 12.6591L36.9744 12.2045C37.2017 11.6742 37.5047 11.2614 37.8835 10.9659C38.2661 10.6667 38.6828 10.4583 39.1335 10.3409C39.5881 10.2197 40.035 10.1591 40.4744 10.1591C40.7547 10.1591 41.0767 10.1932 41.4403 10.2614C41.8078 10.3258 42.1619 10.4602 42.5028 10.6648C42.8475 10.8693 43.1335 11.178 43.3608 11.5909C43.5881 12.0038 43.7017 12.5568 43.7017 13.25V19H42.3608V17.8182H42.2926C42.2017 18.0076 42.0502 18.2102 41.8381 18.4261C41.6259 18.642 41.3438 18.8258 40.9915 18.9773C40.6392 19.1288 40.2093 19.2045 39.7017 19.2045ZM39.9062 18C40.4366 18 40.8835 17.8958 41.2472 17.6875C41.6146 17.4792 41.8911 17.2102 42.0767 16.8807C42.2661 16.5511 42.3608 16.2045 42.3608 15.8409V14.6136C42.304 14.6818 42.179 14.7443 41.9858 14.8011C41.7964 14.8542 41.5767 14.9015 41.3267 14.9432C41.0805 14.9811 40.84 15.0152 40.6051 15.0455C40.3741 15.072 40.1866 15.0947 40.0426 15.1136C39.6941 15.1591 39.3684 15.233 39.0653 15.3352C38.7661 15.4337 38.5237 15.5833 38.3381 15.7841C38.1563 15.9811 38.0653 16.25 38.0653 16.5909C38.0653 17.0568 38.2377 17.4091 38.5824 17.6477C38.9309 17.8826 39.3722 18 39.9062 18ZM49.6946 19.1818C48.8764 19.1818 48.1719 18.9886 47.581 18.6023C46.9901 18.2159 46.5355 17.6837 46.2173 17.0057C45.8991 16.3277 45.7401 15.553 45.7401 14.6818C45.7401 13.7955 45.9029 13.0133 46.2287 12.3352C46.5582 11.6534 47.0166 11.1212 47.6037 10.7386C48.1946 10.3523 48.884 10.1591 49.6719 10.1591C50.2855 10.1591 50.8385 10.2727 51.331 10.5C51.8234 10.7273 52.2268 11.0455 52.5412 11.4545C52.8556 11.8636 53.0507 12.3409 53.1264 12.8864L51.7855 12.8864C51.6832 12.4886 51.456 12.1364 51.1037 11.8295C50.7552 11.5189 50.2855 11.3636 49.6946 11.3636C49.1719 11.3636 48.7135 11.5 48.3196 11.7727C47.9295 12.0417 47.6245 12.4223 47.4048 12.9148C47.1889 13.4034 47.081 13.9773 47.081 14.6364C47.081 15.3106 47.187 15.8977 47.3991 16.3977C47.6151 16.8977 47.9181 17.286 48.3082 17.5625C48.7022 17.839 49.1643 17.9773 49.6946 17.9773C50.0431 17.9773 50.3594 17.9167 50.6435 17.7955C50.9276 17.6742 51.1681 17.5 51.3651 17.2727C51.562 17.0455 51.7022 16.7727 51.7855 16.4545L53.1264 16.4545C53.0507 16.9697 52.8632 17.4337 52.5639 17.8466C52.2685 18.2557 51.8764 18.5814 51.3878 18.8239C50.9029 19.0625 50.3385 19.1818 49.6946 19.1818ZM56.3366 15.8182L56.3139 14.1591H56.5866L60.4048 10.2727L62.0639 10.2727L57.9957 14.3864H57.8821L56.3366 15.8182ZM55.0866 19V7.36364H56.4276V19H55.0866ZM60.6321 19L57.223 14.6818L58.1776 13.75L62.3366 19H60.6321ZM66.9759 19.1818C66.188 19.1818 65.4967 18.9943 64.902 18.6193C64.3111 18.2443 63.849 17.7197 63.5156 17.0455C63.1861 16.3712 63.0213 15.5833 63.0213 14.6818C63.0213 13.7727 63.1861 12.9792 63.5156 12.3011C63.849 11.6231 64.3111 11.0966 64.902 10.7216C65.4967 10.3466 66.188 10.1591 66.9759 10.1591C67.7637 10.1591 68.4531 10.3466 69.044 10.7216C69.6387 11.0966 70.1009 11.6231 70.4304 12.3011C70.7637 12.9792 70.9304 13.7727 70.9304 14.6818C70.9304 15.5833 70.7637 16.3712 70.4304 17.0455C70.1009 17.7197 69.6387 18.2443 69.044 18.6193C68.4531 18.9943 67.7637 19.1818 66.9759 19.1818ZM66.9759 17.9773C67.5743 17.9773 68.0668 17.8239 68.4531 17.517C68.8395 17.2102 69.1255 16.8068 69.3111 16.3068C69.4967 15.8068 69.5895 15.2652 69.5895 14.6818C69.5895 14.0985 69.4967 13.5549 69.3111 13.0511C69.1255 12.5473 68.8395 12.1402 68.4531 11.8295C68.0668 11.5189 67.5743 11.3636 66.9759 11.3636C66.3774 11.3636 65.8849 11.5189 65.4986 11.8295C65.1122 12.1402 64.8262 12.5473 64.6406 13.0511C64.455 13.5549 64.3622 14.0985 64.3622 14.6818C64.3622 15.2652 64.455 15.8068 64.6406 16.3068C64.8262 16.8068 65.1122 17.2102 65.4986 17.517C65.8849 17.8239 66.3774 17.9773 66.9759 17.9773ZM76.8636 10.2727V11.4091H72.1591V10.2727H76.8636ZM73.5682 19V9.06818C73.5682 8.56818 73.6856 8.15151 73.9205 7.81818C74.1553 7.48485 74.4602 7.23485 74.8352 7.06818C75.2102 6.90151 75.6061 6.81818 76.0227 6.81818C76.3523 6.81818 76.6212 6.8447 76.8295 6.89773C77.0379 6.95076 77.1932 7 77.2955 7.04545L76.9091 8.20455C76.8409 8.18182 76.7462 8.15341 76.625 8.11932C76.5076 8.08523 76.3523 8.06818 76.1591 8.06818C75.7159 8.06818 75.3958 8.17992 75.1989 8.40341C75.0057 8.62689 74.9091 8.95455 74.9091 9.38636V19H73.5682ZM82.6293 10.2727V11.4091L77.9247 11.4091V10.2727L82.6293 10.2727ZM79.3338 19V9.06818C79.3338 8.56818 79.4512 8.15151 79.6861 7.81818C79.9209 7.48485 80.2259 7.23485 80.6009 7.06818C80.9759 6.90151 81.3717 6.81818 81.7884 6.81818C82.1179 6.81818 82.3868 6.8447 82.5952 6.89773C82.8035 6.95076 82.9588 7 83.0611 7.04545L82.6747 8.20455C82.6065 8.18182 82.5118 8.15341 82.3906 8.11932C82.2732 8.08523 82.1179 8.06818 81.9247 8.06818C81.4815 8.06818 81.1615 8.17992 80.9645 8.40341C80.7713 8.62689 80.6747 8.95455 80.6747 9.38636V19H79.3338ZM84.5085 19V10.2727H85.8494V19H84.5085ZM85.1903 8.81818C84.929 8.81818 84.7036 8.72917 84.5142 8.55114C84.3286 8.37311 84.2358 8.15909 84.2358 7.90909C84.2358 7.65909 84.3286 7.44508 84.5142 7.26705C84.7036 7.08902 84.929 7 85.1903 7C85.4517 7 85.6752 7.08902 85.8608 7.26705C86.0502 7.44508 86.1449 7.65909 86.1449 7.90909C86.1449 8.15909 86.0502 8.37311 85.8608 8.55114C85.6752 8.72917 85.4517 8.81818 85.1903 8.81818ZM91.8509 19.1818C91.0327 19.1818 90.3281 18.9886 89.7372 18.6023C89.1463 18.2159 88.6918 17.6837 88.3736 17.0057C88.0554 16.3277 87.8963 15.553 87.8963 14.6818C87.8963 13.7955 88.0592 13.0133 88.3849 12.3352C88.7145 11.6534 89.1728 11.1212 89.7599 10.7386C90.3509 10.3523 91.0402 10.1591 91.8281 10.1591C92.4418 10.1591 92.9948 10.2727 93.4872 10.5C93.9796 10.7273 94.383 11.0455 94.6974 11.4545C95.0118 11.8636 95.2069 12.3409 95.2827 12.8864H93.9418C93.8395 12.4886 93.6122 12.1364 93.2599 11.8295C92.9115 11.5189 92.4418 11.3636 91.8509 11.3636C91.3281 11.3636 90.8698 11.5 90.4759 11.7727C90.0857 12.0417 89.7808 12.4223 89.5611 12.9148C89.3452 13.4034 89.2372 13.9773 89.2372 14.6364C89.2372 15.3106 89.3433 15.8977 89.5554 16.3977C89.7713 16.8977 90.0743 17.286 90.4645 17.5625C90.8584 17.839 91.3205 17.9773 91.8509 17.9773C92.1993 17.9773 92.5156 17.9167 92.7997 17.7955C93.0838 17.6742 93.3243 17.5 93.5213 17.2727C93.7183 17.0455 93.8584 16.7727 93.9418 16.4545H95.2827C95.2069 16.9697 95.0194 17.4337 94.7202 17.8466C94.4247 18.2557 94.0327 18.5814 93.544 18.8239C93.0592 19.0625 92.4948 19.1818 91.8509 19.1818ZM100.902 19.1818C100.061 19.1818 99.3357 18.9962 98.7259 18.625C98.1198 18.25 97.652 17.7273 97.3224 17.0568C96.9967 16.3826 96.8338 15.5985 96.8338 14.7045C96.8338 13.8106 96.9967 13.0227 97.3224 12.3409C97.652 11.6553 98.1103 11.1212 98.6974 10.7386C99.2884 10.3523 99.9777 10.1591 100.766 10.1591C101.22 10.1591 101.669 10.2348 102.112 10.3864C102.555 10.5379 102.959 10.7841 103.322 11.125C103.686 11.4621 103.976 11.9091 104.192 12.4659C104.408 13.0227 104.516 13.7083 104.516 14.5227V15.0909H97.7884V13.9318H103.152C103.152 13.4394 103.054 13 102.857 12.6136C102.663 12.2273 102.387 11.9223 102.027 11.6989C101.671 11.4754 101.25 11.3636 100.766 11.3636C100.232 11.3636 99.7694 11.4962 99.3793 11.7614C98.9929 12.0227 98.6955 12.3636 98.4872 12.7841C98.2789 13.2045 98.1747 13.6553 98.1747 14.1364V14.9091C98.1747 15.5682 98.2884 16.1269 98.5156 16.5852C98.7467 17.0398 99.0668 17.3864 99.4759 17.625C99.8849 17.8598 100.36 17.9773 100.902 17.9773C101.254 17.9773 101.572 17.928 101.857 17.8295C102.144 17.7273 102.393 17.5758 102.601 17.375C102.809 17.1705 102.97 16.9167 103.084 16.6136L104.379 16.9773C104.243 17.4167 104.014 17.803 103.692 18.1364C103.37 18.4659 102.972 18.7235 102.499 18.9091C102.025 19.0909 101.493 19.1818 100.902 19.1818Z" fill="white"/>
</svg>
