<svg width="169" height="46" viewBox="0 0 169 46" fill="none" xmlns="http://www.w3.org/2000/svg">
<path d="M0.855824 45V0.636362H18.6186C21.8823 0.636362 24.6045 1.12015 26.7852 2.08771C28.9658 3.05528 30.6049 4.39832 31.7024 6.11683C32.8 7.8209 33.3487 9.78492 33.3487 12.0089C33.3487 13.7418 33.0021 15.2654 32.309 16.5795C31.6158 17.8793 30.6626 18.9479 29.4496 19.7855C28.2509 20.6087 26.879 21.1935 25.3338 21.5401V21.9734C27.0234 22.0456 28.6048 22.5221 30.0778 23.4031C31.5652 24.284 32.7711 25.5187 33.6953 27.1072C34.6196 28.6813 35.0817 30.5587 35.0817 32.7393C35.0817 35.0933 34.4968 37.1945 33.3271 39.043C32.1718 40.877 30.4605 42.3284 28.1932 43.397C25.9259 44.4657 23.1315 45 19.81 45H0.855824ZM10.2354 37.3317H17.8821C20.496 37.3317 22.4022 36.8335 23.6009 35.837C24.7995 34.8261 25.3988 33.4831 25.3988 31.8079C25.3988 30.5804 25.1027 29.4973 24.5107 28.5586C23.9186 27.6199 23.0737 26.8834 21.9762 26.3491C20.8931 25.8147 19.6006 25.5476 18.0987 25.5476H10.2354V37.3317ZM10.2354 19.2006H17.1889C18.4742 19.2006 19.6151 18.9768 20.6115 18.5291C21.6224 18.067 22.4167 17.4171 22.9943 16.5795C23.5864 15.742 23.8825 14.7383 23.8825 13.5685C23.8825 11.9656 23.312 10.6731 22.1712 9.69105C21.0447 8.70904 19.4418 8.21804 17.3622 8.21804H10.2354V19.2006ZM56.045 45.6499C52.6802 45.6499 49.7703 44.935 47.3153 43.5053C44.8747 42.0612 42.9901 40.0539 41.6615 37.4833C40.3329 34.8983 39.6686 31.9018 39.6686 28.4936C39.6686 25.0566 40.3329 22.0528 41.6615 19.4822C42.9901 16.8973 44.8747 14.8899 47.3153 13.4602C49.7703 12.0161 52.6802 11.294 56.045 11.294C59.4098 11.294 62.3125 12.0161 64.7531 13.4602C67.2081 14.8899 69.0999 16.8973 70.4285 19.4822C71.7571 22.0528 72.4214 25.0566 72.4214 28.4936C72.4214 31.9018 71.7571 34.8983 70.4285 37.4833C69.0999 40.0539 67.2081 42.0612 64.7531 43.5053C62.3125 44.935 59.4098 45.6499 56.045 45.6499ZM56.0883 38.5014C57.6191 38.5014 58.8972 38.0682 59.9225 37.2017C60.9478 36.3208 61.7204 35.1222 62.2403 33.6058C62.7747 32.0895 63.0418 30.3638 63.0418 28.4286C63.0418 26.4935 62.7747 24.7678 62.2403 23.2514C61.7204 21.7351 60.9478 20.5365 59.9225 19.6555C58.8972 18.7746 57.6191 18.3342 56.0883 18.3342C54.5431 18.3342 53.2434 18.7746 52.1892 19.6555C51.1494 20.5365 50.3624 21.7351 49.828 23.2514C49.3082 24.7678 49.0482 26.4935 49.0482 28.4286C49.0482 30.3638 49.3082 32.0895 49.828 33.6058C50.3624 35.1222 51.1494 36.3208 52.1892 37.2017C53.2434 38.0682 54.5431 38.5014 56.0883 38.5014ZM87.9097 45.6282C85.7868 45.6282 83.895 45.2599 82.2343 44.5234C80.5735 43.7725 79.2594 42.6677 78.2918 41.2092C77.3387 39.7362 76.8621 37.9021 76.8621 35.707C76.8621 33.8585 77.2015 32.3061 77.8802 31.0497C78.559 29.7933 79.4832 28.7824 80.653 28.017C81.8227 27.2517 83.1513 26.674 84.6388 26.2841C86.1407 25.8942 87.7148 25.6198 89.3611 25.4609C91.2962 25.2588 92.8559 25.071 94.04 24.8977C95.2242 24.71 96.0835 24.4356 96.6178 24.0746C97.1521 23.7135 97.4193 23.1792 97.4193 22.4716V22.3416C97.4193 20.9697 96.9861 19.9083 96.1196 19.1573C95.2675 18.4064 94.0545 18.0309 92.4804 18.0309C90.8196 18.0309 89.4983 18.3991 88.5162 19.1357C87.5342 19.8577 86.8844 20.7675 86.5667 21.8651L78.0319 21.1719C78.4651 19.1501 79.3171 17.4027 80.588 15.9297C81.8588 14.4422 83.4979 13.3014 85.5052 12.5071C87.527 11.6984 89.8665 11.294 92.5237 11.294C94.3722 11.294 96.1412 11.5107 97.8309 11.9439C99.535 12.3771 101.044 13.0486 102.358 13.9584C103.687 14.8683 104.734 16.038 105.499 17.4677C106.265 18.8829 106.647 20.5798 106.647 22.5582V45H97.8959V40.386H97.6359C97.1016 41.4258 96.3867 42.3428 95.4914 43.1371C94.596 43.9169 93.5202 44.5307 92.2638 44.9783C91.0074 45.4116 89.556 45.6282 87.9097 45.6282ZM90.5525 39.2596C91.91 39.2596 93.1086 38.9924 94.1483 38.4581C95.1881 37.9093 96.0041 37.1728 96.5961 36.2486C97.1882 35.3243 97.4843 34.2773 97.4843 33.1076V29.5767C97.1955 29.7644 96.7983 29.9377 96.2929 30.0966C95.8019 30.241 95.2459 30.3782 94.6249 30.5082C94.0039 30.6237 93.383 30.732 92.762 30.8331C92.141 30.9197 91.5778 30.9992 91.0724 31.0714C89.9893 31.2302 89.0434 31.483 88.2346 31.8295C87.4259 32.1761 86.7977 32.6455 86.3501 33.2376C85.9024 33.8152 85.6785 34.5373 85.6785 35.4038C85.6785 36.6602 86.1334 37.6205 87.0432 38.2848C87.9675 38.9347 89.1372 39.2596 90.5525 39.2596ZM113.807 45V11.7273H122.753V17.5327H123.1C123.706 15.4676 124.724 13.9079 126.154 12.8537C127.584 11.785 129.23 11.2507 131.093 11.2507C131.555 11.2507 132.053 11.2796 132.587 11.3374C133.122 11.3951 133.591 11.4745 133.995 11.5756V19.7638C133.562 19.6339 132.963 19.5183 132.198 19.4173C131.432 19.3162 130.732 19.2656 130.096 19.2656C128.739 19.2656 127.526 19.5617 126.457 20.1538C125.403 20.7314 124.565 21.5401 123.944 22.5799C123.338 23.6197 123.035 24.8183 123.035 26.1758V45H113.807ZM149.478 45.5415C146.951 45.5415 144.662 44.8917 142.612 43.592C140.575 42.2778 138.958 40.3499 137.759 37.8082C136.575 35.2521 135.983 32.1184 135.983 28.407C135.983 24.5945 136.597 21.4246 137.824 18.8974C139.052 16.3557 140.684 14.4567 142.72 13.2003C144.77 11.9295 147.016 11.294 149.457 11.294C151.32 11.294 152.872 11.6117 154.114 12.2472C155.37 12.8681 156.381 13.648 157.147 14.5866C157.926 15.5109 158.519 16.4207 158.923 17.316H159.205V0.636362H168.411V45H159.313V39.6712H158.923C158.49 40.5954 157.876 41.5124 157.082 42.4222C156.302 43.3176 155.284 44.0613 154.027 44.6534C152.785 45.2455 151.269 45.5415 149.478 45.5415ZM152.403 38.1982C153.89 38.1982 155.147 37.7938 156.172 36.9851C157.212 36.1619 158.006 35.0138 158.555 33.5408C159.118 32.0678 159.4 30.3421 159.4 28.3636C159.4 26.3852 159.125 24.6667 158.576 23.2081C158.028 21.7495 157.233 20.6231 156.194 19.8288C155.154 19.0346 153.89 18.6374 152.403 18.6374C150.886 18.6374 149.608 19.049 148.569 19.8722C147.529 20.6953 146.742 21.8362 146.207 23.2947C145.673 24.7533 145.406 26.4429 145.406 28.3636C145.406 30.2988 145.673 32.0101 146.207 33.4975C146.756 34.9705 147.543 36.1258 148.569 36.9634C149.608 37.7866 150.886 38.1982 152.403 38.1982Z" fill="black"/>
</svg>
