<svg width="35" height="35" viewBox="0 0 35 35" fill="none" xmlns="http://www.w3.org/2000/svg">
<rect x="0.5" y="0.5" width="34" height="34" rx="17" fill="#9327FF"/>
<path d="M13.25 21.5H10.5568V12.7727H13.3693C14.2159 12.7727 14.9403 12.9474 15.5426 13.2969C16.1449 13.6435 16.6065 14.142 16.9276 14.7926C17.2486 15.4403 17.4091 16.2159 17.4091 17.1193C17.4091 18.0284 17.2472 18.8111 16.9233 19.4673C16.5994 20.1207 16.1278 20.6236 15.5085 20.9759C14.8892 21.3253 14.1364 21.5 13.25 21.5ZM11.6136 20.5625H13.1818C13.9034 20.5625 14.5014 20.4233 14.9759 20.1449C15.4503 19.8665 15.804 19.4702 16.0369 18.956C16.2699 18.4418 16.3864 17.8295 16.3864 17.1193C16.3864 16.4148 16.2713 15.8082 16.0412 15.2997C15.8111 14.7884 15.4673 14.3963 15.0099 14.1236C14.5526 13.848 13.983 13.7102 13.3011 13.7102H11.6136V20.5625ZM19.1818 21.5V12.7727H24.4489V13.7102H20.2386V16.6591H24.1761V17.5966H20.2386V20.5625H24.517V21.5H19.1818Z" fill="white"/>
<rect x="0.5" y="0.5" width="34" height="34" rx="17" stroke="white"/>
</svg>
