<svg width="104" height="27" viewBox="0 0 104 27" fill="none" xmlns="http://www.w3.org/2000/svg">
<rect x="0.5" width="103" height="27" rx="8" fill="#FF7A00"/>
<path d="M30.5 19H26.9091L26.9091 7.36364L30.6591 7.36364C31.7879 7.36364 32.7538 7.59659 33.5568 8.0625C34.3598 8.52462 34.9754 9.18939 35.4034 10.0568C35.8314 10.9205 36.0455 11.9545 36.0455 13.1591C36.0455 14.3712 35.8295 15.4148 35.3977 16.2898C34.9659 17.161 34.3371 17.8314 33.5114 18.3011C32.6856 18.767 31.6818 19 30.5 19ZM28.3182 17.75H30.4091C31.3712 17.75 32.1686 17.5644 32.8011 17.1932C33.4337 16.822 33.9053 16.2936 34.2159 15.608C34.5265 14.9223 34.6818 14.1061 34.6818 13.1591C34.6818 12.2197 34.5284 11.411 34.2216 10.733C33.9148 10.0511 33.4564 9.52841 32.8466 9.16477C32.2367 8.79735 31.4773 8.61364 30.5682 8.61364H28.3182L28.3182 17.75ZM41.8864 19.1818C41.0455 19.1818 40.3201 18.9962 39.7102 18.625C39.1042 18.25 38.6364 17.7273 38.3068 17.0568C37.9811 16.3826 37.8182 15.5985 37.8182 14.7045C37.8182 13.8106 37.9811 13.0227 38.3068 12.3409C38.6364 11.6553 39.0947 11.1212 39.6818 10.7386C40.2727 10.3523 40.9621 10.1591 41.75 10.1591C42.2045 10.1591 42.6534 10.2348 43.0966 10.3864C43.5398 10.5379 43.9432 10.7841 44.3068 11.125C44.6705 11.4621 44.9602 11.9091 45.1761 12.4659C45.392 13.0227 45.5 13.7083 45.5 14.5227V15.0909L38.7727 15.0909V13.9318L44.1364 13.9318C44.1364 13.4394 44.0379 13 43.8409 12.6136C43.6477 12.2273 43.3712 11.9223 43.0114 11.6989C42.6553 11.4754 42.2348 11.3636 41.75 11.3636C41.2159 11.3636 40.7538 11.4962 40.3636 11.7614C39.9773 12.0227 39.6799 12.3636 39.4716 12.7841C39.2633 13.2045 39.1591 13.6553 39.1591 14.1364V14.9091C39.1591 15.5682 39.2727 16.1269 39.5 16.5852C39.7311 17.0398 40.0511 17.3864 40.4602 17.625C40.8693 17.8598 41.3447 17.9773 41.8864 17.9773C42.2386 17.9773 42.5568 17.928 42.8409 17.8295C43.1288 17.7273 43.3769 17.5758 43.5852 17.375C43.7936 17.1705 43.9545 16.9167 44.0682 16.6136L45.3636 16.9773C45.2273 17.4167 44.9981 17.803 44.6761 18.1364C44.3542 18.4659 43.9564 18.7235 43.483 18.9091C43.0095 19.0909 42.4773 19.1818 41.8864 19.1818ZM53.7216 12.2273L52.517 12.5682C52.4413 12.3674 52.3295 12.1723 52.1818 11.983C52.0379 11.7898 51.8409 11.6307 51.5909 11.5057C51.3409 11.3807 51.0208 11.3182 50.6307 11.3182C50.0966 11.3182 49.6515 11.4413 49.2955 11.6875C48.9432 11.9299 48.767 12.2386 48.767 12.6136C48.767 12.947 48.8883 13.2102 49.1307 13.4034C49.3731 13.5966 49.7519 13.7576 50.267 13.8864L51.5625 14.2045C52.3428 14.3939 52.9242 14.6837 53.3068 15.0739C53.6894 15.4602 53.8807 15.9583 53.8807 16.5682C53.8807 17.0682 53.7367 17.5152 53.4489 17.9091C53.1648 18.303 52.767 18.6136 52.2557 18.8409C51.7443 19.0682 51.1496 19.1818 50.4716 19.1818C49.5814 19.1818 48.8447 18.9886 48.2614 18.6023C47.678 18.2159 47.3087 17.6515 47.1534 16.9091L48.4261 16.5909C48.5473 17.0606 48.7765 17.4129 49.1136 17.6477C49.4545 17.8826 49.8996 18 50.4489 18C51.0739 18 51.5701 17.8674 51.9375 17.6023C52.3087 17.3333 52.4943 17.0114 52.4943 16.6364C52.4943 16.3333 52.3883 16.0795 52.1761 15.875C51.964 15.6667 51.6383 15.5114 51.1989 15.4091L49.7443 15.0682C48.9451 14.8788 48.358 14.5852 47.983 14.1875C47.6117 13.786 47.4261 13.2841 47.4261 12.6818C47.4261 12.1894 47.5644 11.7538 47.8409 11.375C48.1212 10.9962 48.5019 10.6989 48.983 10.483C49.4678 10.267 50.017 10.1591 50.6307 10.1591C51.4943 10.1591 52.1723 10.3485 52.6648 10.7273C53.161 11.1061 53.5133 11.6061 53.7216 12.2273ZM55.8991 19V10.2727H57.2401V19H55.8991ZM56.581 8.81818C56.3196 8.81818 56.0942 8.72917 55.9048 8.55114C55.7192 8.37311 55.6264 8.15909 55.6264 7.90909C55.6264 7.65909 55.7192 7.44508 55.9048 7.26705C56.0942 7.08902 56.3196 7 56.581 7C56.8423 7 57.0658 7.08902 57.2514 7.26705C57.4408 7.44508 57.5355 7.65909 57.5355 7.90909C57.5355 8.15909 57.4408 8.37311 57.2514 8.55114C57.0658 8.72917 56.8423 8.81818 56.581 8.81818ZM63.2188 22.4545C62.571 22.4545 62.0142 22.3712 61.5483 22.2045C61.0824 22.0417 60.6941 21.8258 60.3835 21.5568C60.0767 21.2917 59.8324 21.0076 59.6506 20.7045L60.7188 19.9545C60.84 20.1136 60.9934 20.2955 61.179 20.5C61.3646 20.7083 61.6184 20.8883 61.9403 21.0398C62.2661 21.1951 62.6922 21.2727 63.2188 21.2727C63.9233 21.2727 64.5047 21.1023 64.9631 20.7614C65.4214 20.4205 65.6506 19.8864 65.6506 19.1591V17.3864H65.5369C65.4384 17.5455 65.2983 17.7424 65.1165 17.9773C64.9384 18.2083 64.6809 18.4148 64.3438 18.5966C64.0104 18.7746 63.5597 18.8636 62.9915 18.8636C62.2869 18.8636 61.6544 18.697 61.0938 18.3636C60.5369 18.0303 60.0956 17.5455 59.7699 16.9091C59.4479 16.2727 59.2869 15.5 59.2869 14.5909C59.2869 13.697 59.4441 12.9186 59.7585 12.2557C60.0729 11.589 60.5104 11.0739 61.071 10.7102C61.6316 10.3428 62.2794 10.1591 63.0142 10.1591C63.5824 10.1591 64.0331 10.2538 64.3665 10.4432C64.7036 10.6288 64.9612 10.8409 65.1392 11.0795C65.321 11.3144 65.4612 11.5076 65.5597 11.6591H65.696V10.2727H66.9915V19.25C66.9915 20 66.821 20.6098 66.4801 21.0795C66.143 21.553 65.6884 21.8996 65.1165 22.1193C64.5483 22.3428 63.9157 22.4545 63.2188 22.4545ZM63.1733 17.6591C63.7112 17.6591 64.1657 17.536 64.5369 17.2898C64.9081 17.0436 65.1903 16.6894 65.3835 16.2273C65.5767 15.7652 65.6733 15.2121 65.6733 14.5682C65.6733 13.9394 65.5786 13.3845 65.3892 12.9034C65.1998 12.4223 64.9195 12.0455 64.5483 11.7727C64.1771 11.5 63.7188 11.3636 63.1733 11.3636C62.6051 11.3636 62.1316 11.5076 61.7528 11.7955C61.3778 12.0833 61.0956 12.4697 60.9062 12.9545C60.7206 13.4394 60.6278 13.9773 60.6278 14.5682C60.6278 15.1742 60.7225 15.7102 60.9119 16.1761C61.1051 16.6383 61.3892 17.0019 61.7642 17.267C62.143 17.5284 62.6127 17.6591 63.1733 17.6591ZM70.7869 13.75V19H69.446V10.2727H70.7415V11.6364H70.8551C71.0597 11.1932 71.3703 10.8371 71.7869 10.5682C72.2036 10.2955 72.7415 10.1591 73.4006 10.1591C73.9915 10.1591 74.5085 10.2803 74.9517 10.5227C75.3949 10.7614 75.7396 11.125 75.9858 11.6136C76.232 12.0985 76.3551 12.7121 76.3551 13.4545V19H75.0142V13.5455C75.0142 12.8598 74.8362 12.3258 74.4801 11.9432C74.1241 11.5568 73.6354 11.3636 73.0142 11.3636C72.5862 11.3636 72.2036 11.4564 71.8665 11.642C71.5331 11.8277 71.2699 12.0985 71.0767 12.4545C70.8835 12.8106 70.7869 13.2424 70.7869 13.75Z" fill="white"/>
</svg>
