<svg width="18" height="13" viewBox="0 0 18 13" fill="none" xmlns="http://www.w3.org/2000/svg">
<g clip-path="url(#clip0_199_3241)">
<path d="M8.99974 7.74524C8.80031 7.74557 8.60603 7.68367 8.44549 7.56863L0.876998 2.13467C0.778524 2.06391 0.695351 1.97498 0.632227 1.87296C0.569103 1.77094 0.527264 1.65784 0.5091 1.5401C0.472414 1.30232 0.534386 1.06011 0.681381 0.866747C0.828377 0.67339 1.04835 0.544725 1.29292 0.509057C1.53749 0.47339 1.78661 0.533642 1.98549 0.676559L8.99974 5.7075L16.014 0.67656C16.1125 0.605795 16.2243 0.55458 16.3431 0.52584C16.462 0.4971 16.5855 0.491398 16.7066 0.509058C16.8277 0.526719 16.944 0.567397 17.0489 0.628769C17.1538 0.690142 17.2453 0.771007 17.3181 0.866748C17.3909 0.962489 17.4436 1.07123 17.4731 1.18677C17.5027 1.3023 17.5085 1.42236 17.4904 1.5401C17.4722 1.65784 17.4304 1.77094 17.3672 1.87296C17.3041 1.97498 17.221 2.06391 17.1225 2.13467L9.55398 7.56863C9.39344 7.68367 9.19917 7.74557 8.99974 7.74524Z" fill="#7AE229"/>
<path d="M8.99998 12.5001C8.80055 12.5005 8.60628 12.4386 8.44574 12.3235L0.877242 6.88955C0.678366 6.74664 0.546029 6.53276 0.509344 6.29498C0.472658 6.0572 0.53463 5.81499 0.681625 5.62163C0.828621 5.42827 1.0486 5.29961 1.29317 5.26394C1.53773 5.22827 1.78686 5.28853 1.98574 5.43144L8.99998 10.4624L16.0142 5.43144C16.2131 5.28853 16.4622 5.22827 16.7068 5.26394C16.9514 5.29961 17.1713 5.42827 17.3183 5.62163C17.4653 5.81499 17.5273 6.0572 17.4906 6.29498C17.4539 6.53276 17.3216 6.74664 17.1227 6.88956L9.55423 12.3235C9.39369 12.4386 9.19941 12.5005 8.99998 12.5001Z" fill="#7AE229"/>
</g>
<defs>
<clipPath id="clip0_199_3241">
<rect width="17" height="12" fill="white" transform="translate(0.5 0.5)"/>
</clipPath>
</defs>
</svg>
