<svg width="98" height="27" viewBox="0 0 98 27" fill="none" xmlns="http://www.w3.org/2000/svg">
<rect x="0.5" width="97" height="27" rx="8" fill="#FFC701"/>
<path d="M26.9091 7.36364H28.5909L32.5455 17.0227H32.6818L36.6364 7.36364H38.3182V19H37V10.1591H36.8864L33.25 19H31.9773L28.3409 10.1591H28.2273L28.2273 19H26.9091L26.9091 7.36364ZM44.6207 19.1818C43.7798 19.1818 43.0545 18.9962 42.4446 18.625C41.8385 18.25 41.3707 17.7273 41.0412 17.0568C40.7154 16.3826 40.5526 15.5985 40.5526 14.7045C40.5526 13.8106 40.7154 13.0227 41.0412 12.3409C41.3707 11.6553 41.8291 11.1212 42.4162 10.7386C43.0071 10.3523 43.6965 10.1591 44.4844 10.1591C44.9389 10.1591 45.3878 10.2348 45.831 10.3864C46.2741 10.5379 46.6776 10.7841 47.0412 11.125C47.4048 11.4621 47.6946 11.9091 47.9105 12.4659C48.1264 13.0227 48.2344 13.7083 48.2344 14.5227V15.0909L41.5071 15.0909V13.9318L46.8707 13.9318C46.8707 13.4394 46.7723 13 46.5753 12.6136C46.3821 12.2273 46.1056 11.9223 45.7457 11.6989C45.3897 11.4754 44.9692 11.3636 44.4844 11.3636C43.9503 11.3636 43.4882 11.4962 43.098 11.7614C42.7116 12.0227 42.4143 12.3636 42.206 12.7841C41.9976 13.2045 41.8935 13.6553 41.8935 14.1364V14.9091C41.8935 15.5682 42.0071 16.1269 42.2344 16.5852C42.4654 17.0398 42.7855 17.3864 43.1946 17.625C43.6037 17.8598 44.0791 17.9773 44.6207 17.9773C44.973 17.9773 45.2912 17.928 45.5753 17.8295C45.8632 17.7273 46.1113 17.5758 46.3196 17.375C46.5279 17.1705 46.6889 16.9167 46.8026 16.6136L48.098 16.9773C47.9616 17.4167 47.7325 17.803 47.4105 18.1364C47.0885 18.4659 46.6908 18.7235 46.2173 18.9091C45.7438 19.0909 45.2116 19.1818 44.6207 19.1818ZM53.5696 19.1818C52.8423 19.1818 52.2003 18.9981 51.6435 18.6307C51.0866 18.2595 50.651 17.7367 50.3366 17.0625C50.0223 16.3845 49.8651 15.5833 49.8651 14.6591C49.8651 13.7424 50.0223 12.947 50.3366 12.2727C50.651 11.5985 51.0885 11.0777 51.6491 10.7102C52.2098 10.3428 52.8575 10.1591 53.5923 10.1591C54.1605 10.1591 54.6094 10.2538 54.9389 10.4432C55.2723 10.6288 55.526 10.8409 55.7003 11.0795C55.8783 11.3144 56.0166 11.5076 56.1151 11.6591H56.2287V7.36364H57.5696V19H56.2741V17.6591H56.1151C56.0166 17.8182 55.8764 18.0189 55.6946 18.2614C55.5128 18.5 55.2533 18.714 54.9162 18.9034C54.5791 19.089 54.1302 19.1818 53.5696 19.1818ZM53.7514 17.9773C54.2893 17.9773 54.7438 17.8371 55.1151 17.5568C55.4863 17.2727 55.7685 16.8807 55.9616 16.3807C56.1548 15.8769 56.2514 15.2955 56.2514 14.6364C56.2514 13.9848 56.1567 13.4148 55.9673 12.9261C55.7779 12.4337 55.4976 12.0511 55.1264 11.7784C54.7552 11.5019 54.2969 11.3636 53.7514 11.3636C53.1832 11.3636 52.7098 11.5095 52.331 11.8011C51.956 12.089 51.6738 12.4811 51.4844 12.9773C51.2988 13.4697 51.206 14.0227 51.206 14.6364C51.206 15.2576 51.3007 15.822 51.4901 16.3295C51.6832 16.8333 51.9673 17.2348 52.3423 17.5341C52.7211 17.8295 53.1908 17.9773 53.7514 17.9773ZM60.2116 19V10.2727L61.5526 10.2727V19H60.2116ZM60.8935 8.81818C60.6321 8.81818 60.4067 8.72917 60.2173 8.55114C60.0317 8.37311 59.9389 8.15909 59.9389 7.90909C59.9389 7.65909 60.0317 7.44508 60.2173 7.26705C60.4067 7.08902 60.6321 7 60.8935 7C61.1548 7 61.3783 7.08902 61.5639 7.26705C61.7533 7.44508 61.848 7.65909 61.848 7.90909C61.848 8.15909 61.7533 8.37311 61.5639 8.55114C61.3783 8.72917 61.1548 8.81818 60.8935 8.81818ZM66.5767 19.2045C66.0237 19.2045 65.5218 19.1004 65.071 18.892C64.6203 18.6799 64.2623 18.375 63.9972 17.9773C63.732 17.5758 63.5994 17.0909 63.5994 16.5227C63.5994 16.0227 63.6979 15.6174 63.8949 15.3068C64.0919 14.9924 64.3551 14.7462 64.6847 14.5682C65.0142 14.3902 65.3778 14.2576 65.7756 14.1705C66.1771 14.0795 66.5805 14.0076 66.9858 13.9545C67.5161 13.8864 67.946 13.8352 68.2756 13.8011C68.6089 13.7633 68.8513 13.7008 69.0028 13.6136C69.1581 13.5265 69.2358 13.375 69.2358 13.1591V13.1136C69.2358 12.553 69.0824 12.1174 68.7756 11.8068C68.4725 11.4962 68.0123 11.3409 67.3949 11.3409C66.7547 11.3409 66.2528 11.4811 65.8892 11.7614C65.5256 12.0417 65.2699 12.3409 65.1222 12.6591L63.8494 12.2045C64.0767 11.6742 64.3797 11.2614 64.7585 10.9659C65.1411 10.6667 65.5578 10.4583 66.0085 10.3409C66.4631 10.2197 66.91 10.1591 67.3494 10.1591C67.6297 10.1591 67.9517 10.1932 68.3153 10.2614C68.6828 10.3258 69.0369 10.4602 69.3778 10.6648C69.7225 10.8693 70.0085 11.178 70.2358 11.5909C70.4631 12.0038 70.5767 12.5568 70.5767 13.25V19H69.2358V17.8182H69.1676C69.0767 18.0076 68.9252 18.2102 68.7131 18.4261C68.5009 18.642 68.2188 18.8258 67.8665 18.9773C67.5142 19.1288 67.0843 19.2045 66.5767 19.2045ZM66.7812 18C67.3116 18 67.7585 17.8958 68.1222 17.6875C68.4896 17.4792 68.7661 17.2102 68.9517 16.8807C69.1411 16.5511 69.2358 16.2045 69.2358 15.8409V14.6136C69.179 14.6818 69.054 14.7443 68.8608 14.8011C68.6714 14.8542 68.4517 14.9015 68.2017 14.9432C67.9555 14.9811 67.715 15.0152 67.4801 15.0455C67.2491 15.072 67.0616 15.0947 66.9176 15.1136C66.5691 15.1591 66.2434 15.233 65.9403 15.3352C65.6411 15.4337 65.3987 15.5833 65.2131 15.7841C65.0313 15.9811 64.9403 16.25 64.9403 16.5909C64.9403 17.0568 65.1127 17.4091 65.4574 17.6477C65.8059 17.8826 66.2472 18 66.7812 18Z" fill="white"/>
</svg>
