<svg width="35" height="35" viewBox="0 0 35 35" fill="none" xmlns="http://www.w3.org/2000/svg">
<rect x="0.5" y="0.5" width="34" height="34" rx="17" fill="#FFA800"/>
<path d="M10.9148 21.5H9.80682L13.0114 12.7727H14.1023L17.3068 21.5H16.1989L13.5909 14.1534H13.5227L10.9148 21.5ZM11.3239 18.0909H15.7898V19.0284H11.3239V18.0909ZM23.4389 14.9545C23.3878 14.5227 23.1804 14.1875 22.8168 13.9489C22.4531 13.7102 22.0071 13.5909 21.4787 13.5909C21.0923 13.5909 20.7543 13.6534 20.4645 13.7784C20.1776 13.9034 19.9531 14.0753 19.7912 14.294C19.6321 14.5128 19.5526 14.7614 19.5526 15.0398C19.5526 15.2727 19.608 15.473 19.7188 15.6406C19.8324 15.8054 19.9773 15.9432 20.1534 16.054C20.3295 16.1619 20.5142 16.2514 20.7074 16.3224C20.9006 16.3906 21.0781 16.446 21.2401 16.4886L22.1264 16.7273C22.3537 16.7869 22.6065 16.8693 22.8849 16.9744C23.1662 17.0795 23.4347 17.223 23.6903 17.4048C23.9489 17.5838 24.1619 17.8139 24.3295 18.0952C24.4972 18.3764 24.581 18.7216 24.581 19.1307C24.581 19.6023 24.4574 20.0284 24.2102 20.4091C23.9659 20.7898 23.608 21.0923 23.1364 21.3168C22.6676 21.5412 22.098 21.6534 21.4276 21.6534C20.8026 21.6534 20.2614 21.5526 19.804 21.3509C19.3494 21.1491 18.9915 20.8679 18.7301 20.5071C18.4716 20.1463 18.3253 19.7273 18.2912 19.25H19.3821C19.4105 19.5795 19.5213 19.8523 19.7145 20.0682C19.9105 20.2812 20.1577 20.4403 20.456 20.5455C20.7571 20.6477 21.081 20.6989 21.4276 20.6989C21.831 20.6989 22.1932 20.6335 22.5142 20.5028C22.8352 20.3693 23.0895 20.1847 23.277 19.9489C23.4645 19.7102 23.5582 19.4318 23.5582 19.1136C23.5582 18.8239 23.4773 18.5881 23.3153 18.4062C23.1534 18.2244 22.9403 18.0767 22.6761 17.9631C22.4119 17.8494 22.1264 17.75 21.8196 17.6648L20.7457 17.358C20.0639 17.1619 19.5241 16.8821 19.1264 16.5185C18.7287 16.1548 18.5298 15.679 18.5298 15.0909C18.5298 14.6023 18.6619 14.1761 18.9261 13.8125C19.1932 13.446 19.5511 13.1619 20 12.9602C20.4517 12.7557 20.956 12.6534 21.5128 12.6534C22.0753 12.6534 22.5753 12.7543 23.0128 12.956C23.4503 13.1548 23.7969 13.4276 24.0526 13.7741C24.3111 14.1207 24.4474 14.5142 24.4616 14.9545H23.4389Z" fill="white"/>
<rect x="0.5" y="0.5" width="34" height="34" rx="17" stroke="white"/>
</svg>
