<svg width="196" height="22" viewBox="0 0 196 22" fill="none" xmlns="http://www.w3.org/2000/svg">
<path d="M3.95987 16.5H0.499645L5.77202 1.22727H9.93324L15.1982 16.5H11.7379L7.91229 4.71733H7.79297L3.95987 16.5ZM3.74361 10.4968H11.9169V13.0174H3.74361V10.4968ZM17.8008 16.5L14.6836 5.04545H17.8977L19.6726 12.7415H19.777L21.6264 5.04545H24.7809L26.6602 12.6967H26.7571L28.5021 5.04545H31.7088L28.5991 16.5H25.2358L23.267 9.29616H23.1254L21.1566 16.5H17.8008ZM36.6698 16.7163C35.939 16.7163 35.2877 16.5895 34.716 16.3359C34.1443 16.0774 33.6919 15.6971 33.3588 15.195C33.0306 14.6879 32.8666 14.0565 32.8666 13.3008C32.8666 12.6644 32.9834 12.13 33.2171 11.6974C33.4507 11.2649 33.7689 10.9169 34.1716 10.6534C34.5743 10.3899 35.0317 10.1911 35.5438 10.0568C36.0608 9.92259 36.6027 9.82812 37.1695 9.77344C37.8357 9.70384 38.3726 9.6392 38.7803 9.57955C39.1879 9.51491 39.4838 9.42045 39.6677 9.29616C39.8517 9.17187 39.9436 8.98793 39.9436 8.74432V8.69957C39.9436 8.22727 39.7945 7.86186 39.4962 7.60334C39.2029 7.34481 38.7852 7.21555 38.2433 7.21555C37.6716 7.21555 37.2167 7.34233 36.8786 7.59588C36.5406 7.84446 36.3169 8.15767 36.2075 8.53551L33.2693 8.29688C33.4184 7.60085 33.7117 6.99929 34.1492 6.49219C34.5867 5.98011 35.151 5.58736 35.8421 5.31392C36.5381 5.03551 37.3435 4.89631 38.2583 4.89631C38.8946 4.89631 39.5036 4.97088 40.0853 5.12003C40.672 5.26918 41.1915 5.50035 41.6439 5.81356C42.1013 6.12678 42.4617 6.52947 42.7252 7.02166C42.9887 7.50888 43.1205 8.09304 43.1205 8.77415V16.5H40.1077V14.9116H40.0182C39.8343 15.2695 39.5882 15.5852 39.2799 15.8587C38.9717 16.1271 38.6013 16.3384 38.1688 16.4925C37.7362 16.6417 37.2366 16.7163 36.6698 16.7163ZM37.5796 14.5238C38.047 14.5238 38.4596 14.4318 38.8176 14.2479C39.1755 14.0589 39.4564 13.8054 39.6602 13.4872C39.8641 13.169 39.966 12.8086 39.966 12.4059V11.1903C39.8666 11.255 39.7298 11.3146 39.5558 11.3693C39.3868 11.419 39.1954 11.4663 38.9816 11.511C38.7678 11.5508 38.5541 11.5881 38.3403 11.6229C38.1265 11.6527 37.9326 11.68 37.7586 11.7049C37.3857 11.7596 37.0601 11.8466 36.7817 11.9659C36.5033 12.0852 36.287 12.2468 36.1329 12.4506C35.9788 12.6495 35.9017 12.8981 35.9017 13.1964C35.9017 13.6289 36.0583 13.9595 36.3715 14.1882C36.6897 14.4119 37.0924 14.5238 37.5796 14.5238ZM45.5851 16.5V5.04545H48.762V16.5H45.5851ZM47.181 3.56889C46.7087 3.56889 46.3035 3.41229 45.9655 3.09908C45.6324 2.78089 45.4658 2.40057 45.4658 1.9581C45.4658 1.5206 45.6324 1.14524 45.9655 0.832031C46.3035 0.513849 46.7087 0.354758 47.181 0.354758C47.6533 0.354758 48.056 0.513849 48.3891 0.832031C48.7272 1.14524 48.8962 1.5206 48.8962 1.9581C48.8962 2.40057 48.7272 2.78089 48.3891 3.09908C48.056 3.41229 47.6533 3.56889 47.181 3.56889ZM57.3995 5.04545V7.43182H50.5014V5.04545H57.3995ZM52.0675 2.30114H55.2443V12.9801C55.2443 13.2734 55.2891 13.5021 55.3786 13.6662C55.468 13.8253 55.5923 13.9371 55.7514 14.0018C55.9155 14.0664 56.1044 14.0987 56.3182 14.0987C56.4673 14.0987 56.6165 14.0863 56.7656 14.0614C56.9148 14.0316 57.0291 14.0092 57.1087 13.9943L57.6083 16.3583C57.4492 16.408 57.2255 16.4652 56.9371 16.5298C56.6488 16.5994 56.2983 16.6417 55.8857 16.6566C55.12 16.6864 54.4489 16.5845 53.8722 16.3509C53.3004 16.1172 52.8555 15.7543 52.5373 15.2621C52.2191 14.7699 52.0625 14.1484 52.0675 13.3977V2.30114ZM59.4689 16.5V5.04545H62.6458V16.5H59.4689ZM61.0648 3.56889C60.5925 3.56889 60.1873 3.41229 59.8493 3.09908C59.5162 2.78089 59.3496 2.40057 59.3496 1.9581C59.3496 1.5206 59.5162 1.14524 59.8493 0.832031C60.1873 0.513849 60.5925 0.354758 61.0648 0.354758C61.5371 0.354758 61.9398 0.513849 62.2729 0.832031C62.611 1.14524 62.78 1.5206 62.78 1.9581C62.78 2.40057 62.611 2.78089 62.2729 3.09908C61.9398 3.41229 61.5371 3.56889 61.0648 3.56889ZM68.3675 9.87784V16.5H65.1906V5.04545H68.2183V7.06641H68.3525C68.6061 6.40021 69.0312 5.87322 69.6278 5.48544C70.2243 5.09268 70.9477 4.89631 71.7979 4.89631C72.5933 4.89631 73.2868 5.07031 73.8785 5.41832C74.4701 5.76633 74.93 6.26349 75.2581 6.9098C75.5862 7.55114 75.7503 8.31676 75.7503 9.20668V16.5H72.5734V9.77344C72.5784 9.07244 72.3994 8.52557 72.0365 8.13281C71.6736 7.73509 71.1739 7.53622 70.5376 7.53622C70.11 7.53622 69.7322 7.6282 69.404 7.81214C69.0809 7.99609 68.8273 8.26456 68.6434 8.61754C68.4644 8.96555 68.3724 9.38565 68.3675 9.87784ZM83.4146 21.0341C82.3855 21.0341 81.503 20.8924 80.7672 20.609C80.0364 20.3306 79.4547 19.9503 79.0222 19.468C78.5897 18.9858 78.3088 18.4439 78.1795 17.8423L81.1177 17.4471C81.2072 17.6758 81.3489 17.8896 81.5428 18.0884C81.7367 18.2873 81.9927 18.4464 82.3109 18.5657C82.6341 18.69 83.0268 18.7521 83.4892 18.7521C84.1802 18.7521 84.7495 18.5831 85.1969 18.245C85.6493 17.9119 85.8755 17.3526 85.8755 16.5671V14.4716H85.7413C85.6021 14.7898 85.3933 15.0906 85.1149 15.3739C84.8365 15.6573 84.4785 15.8885 84.041 16.0675C83.6035 16.2464 83.0815 16.3359 82.475 16.3359C81.6149 16.3359 80.8319 16.1371 80.1259 15.7393C79.4249 15.3366 78.8656 14.7227 78.448 13.8974C78.0353 13.0671 77.829 12.0181 77.829 10.7504C77.829 9.45277 78.0403 8.36896 78.4629 7.49893C78.8855 6.62891 79.4473 5.97763 80.1483 5.5451C80.8542 5.11257 81.6273 4.89631 82.4675 4.89631C83.1088 4.89631 83.6458 5.00568 84.0783 5.22443C84.5108 5.43821 84.8588 5.70668 85.1223 6.02983C85.3908 6.34801 85.5971 6.66122 85.7413 6.96946H85.8606V5.04545H89.0151V16.6119C89.0151 17.5863 88.7765 18.4016 88.2992 19.0579C87.8219 19.7141 87.1607 20.2063 86.3155 20.5344C85.4753 20.8675 84.5083 21.0341 83.4146 21.0341ZM83.4817 13.9496C83.9938 13.9496 84.4263 13.8228 84.7793 13.5692C85.1373 13.3107 85.4107 12.9428 85.5996 12.4656C85.7935 11.9833 85.8904 11.4066 85.8904 10.7354C85.8904 10.0643 85.796 9.4826 85.6071 8.99041C85.4181 8.49325 85.1447 8.10795 84.7868 7.83452C84.4288 7.56108 83.9938 7.42436 83.4817 7.42436C82.9597 7.42436 82.5197 7.56605 82.1618 7.84943C81.8038 8.12784 81.5328 8.51562 81.3489 9.01278C81.165 9.50994 81.073 10.0842 81.073 10.7354C81.073 11.3967 81.165 11.9684 81.3489 12.4506C81.5378 12.9279 81.8088 13.2983 82.1618 13.5618C82.5197 13.8203 82.9597 13.9496 83.4817 13.9496ZM96.4632 16.5V1.22727H106.575V3.88956H99.6922V7.52876H105.904V10.1911H99.6922V16.5H96.4632ZM113.067 16.7237C111.889 16.7237 110.875 16.4851 110.024 16.0078C109.179 15.5256 108.528 14.8445 108.071 13.9645C107.613 13.0795 107.384 12.033 107.384 10.8249C107.384 9.64666 107.613 8.61257 108.071 7.72266C108.528 6.83274 109.172 6.1392 110.002 5.64204C110.837 5.14489 111.817 4.89631 112.94 4.89631C113.696 4.89631 114.399 5.01811 115.051 5.26172C115.707 5.50035 116.279 5.8608 116.766 6.34304C117.258 6.82528 117.641 7.43182 117.914 8.16264C118.188 8.88849 118.324 9.73864 118.324 10.7131V11.5856H108.652V9.61683H115.334C115.334 9.15945 115.235 8.75426 115.036 8.40128C114.837 8.0483 114.561 7.77237 114.208 7.57351C113.86 7.36967 113.455 7.26776 112.992 7.26776C112.51 7.26776 112.083 7.37962 111.71 7.60334C111.342 7.82209 111.054 8.1179 110.845 8.49077C110.636 8.85866 110.529 9.26882 110.524 9.72124V11.593C110.524 12.1598 110.628 12.6495 110.837 13.0621C111.051 13.4748 111.352 13.793 111.74 14.0167C112.127 14.2404 112.587 14.3523 113.119 14.3523C113.472 14.3523 113.795 14.3026 114.089 14.2031C114.382 14.1037 114.633 13.9545 114.842 13.7557C115.051 13.5568 115.21 13.3132 115.319 13.0249L118.257 13.2188C118.108 13.9247 117.802 14.5412 117.34 15.0682C116.883 15.5902 116.291 15.9979 115.565 16.2912C114.844 16.5795 114.012 16.7237 113.067 16.7237ZM125.618 16.7237C124.44 16.7237 123.425 16.4851 122.575 16.0078C121.73 15.5256 121.079 14.8445 120.621 13.9645C120.164 13.0795 119.935 12.033 119.935 10.8249C119.935 9.64666 120.164 8.61257 120.621 7.72266C121.079 6.83274 121.723 6.1392 122.553 5.64204C123.388 5.14489 124.367 4.89631 125.491 4.89631C126.247 4.89631 126.95 5.01811 127.601 5.26172C128.258 5.50035 128.829 5.8608 129.317 6.34304C129.809 6.82528 130.192 7.43182 130.465 8.16264C130.739 8.88849 130.875 9.73864 130.875 10.7131V11.5856H121.203V9.61683H127.885C127.885 9.15945 127.785 8.75426 127.587 8.40128C127.388 8.0483 127.112 7.77237 126.759 7.57351C126.411 7.36967 126.006 7.26776 125.543 7.26776C125.061 7.26776 124.633 7.37962 124.261 7.60334C123.893 7.82209 123.604 8.1179 123.396 8.49077C123.187 8.85866 123.08 9.26882 123.075 9.72124V11.593C123.075 12.1598 123.179 12.6495 123.388 13.0621C123.602 13.4748 123.903 13.793 124.29 14.0167C124.678 14.2404 125.138 14.3523 125.67 14.3523C126.023 14.3523 126.346 14.3026 126.639 14.2031C126.933 14.1037 127.184 13.9545 127.393 13.7557C127.601 13.5568 127.761 13.3132 127.87 13.0249L130.808 13.2188C130.659 13.9247 130.353 14.5412 129.891 15.0682C129.434 15.5902 128.842 15.9979 128.116 16.2912C127.395 16.5795 126.562 16.7237 125.618 16.7237ZM137.169 16.6864C136.299 16.6864 135.511 16.4627 134.805 16.0153C134.104 15.5629 133.547 14.8991 133.135 14.0241C132.727 13.1442 132.523 12.0653 132.523 10.7876C132.523 9.47514 132.735 8.38388 133.157 7.51385C133.58 6.63885 134.142 5.98509 134.843 5.55256C135.549 5.11506 136.322 4.89631 137.162 4.89631C137.803 4.89631 138.338 5.00568 138.765 5.22443C139.198 5.43821 139.546 5.70668 139.809 6.02983C140.078 6.34801 140.282 6.66122 140.421 6.96946H140.518V1.22727H143.687V16.5H140.555V14.6655H140.421C140.272 14.9837 140.06 15.2994 139.787 15.6126C139.518 15.9208 139.168 16.1768 138.735 16.3807C138.308 16.5845 137.786 16.6864 137.169 16.6864ZM138.176 14.1584C138.688 14.1584 139.121 14.0192 139.474 13.7408C139.832 13.4574 140.105 13.0621 140.294 12.555C140.488 12.0479 140.585 11.4538 140.585 10.7727C140.585 10.0916 140.49 9.5 140.301 8.99787C140.112 8.49574 139.839 8.10795 139.481 7.83452C139.123 7.56108 138.688 7.42436 138.176 7.42436C137.654 7.42436 137.214 7.56605 136.856 7.84943C136.498 8.13281 136.227 8.52557 136.043 9.0277C135.859 9.52983 135.767 10.1115 135.767 10.7727C135.767 11.4389 135.859 12.0281 136.043 12.5401C136.232 13.0472 136.503 13.445 136.856 13.7333C137.214 14.0167 137.654 14.1584 138.176 14.1584ZM146.359 16.5V1.22727H149.536V6.96946H149.632C149.772 6.66122 149.973 6.34801 150.237 6.02983C150.505 5.70668 150.853 5.43821 151.281 5.22443C151.713 5.00568 152.25 4.89631 152.891 4.89631C153.727 4.89631 154.497 5.11506 155.203 5.55256C155.909 5.98509 156.473 6.63885 156.896 7.51385C157.319 8.38388 157.53 9.47514 157.53 10.7876C157.53 12.0653 157.324 13.1442 156.911 14.0241C156.503 14.8991 155.946 15.5629 155.24 16.0153C154.539 16.4627 153.754 16.6864 152.884 16.6864C152.267 16.6864 151.743 16.5845 151.31 16.3807C150.883 16.1768 150.532 15.9208 150.259 15.6126C149.985 15.2994 149.777 14.9837 149.632 14.6655H149.491V16.5H146.359ZM149.468 10.7727C149.468 11.4538 149.563 12.0479 149.752 12.555C149.941 13.0621 150.214 13.4574 150.572 13.7408C150.93 14.0192 151.365 14.1584 151.877 14.1584C152.394 14.1584 152.832 14.0167 153.19 13.7333C153.548 13.445 153.819 13.0472 154.002 12.5401C154.191 12.0281 154.286 11.4389 154.286 10.7727C154.286 10.1115 154.194 9.52983 154.01 9.0277C153.826 8.52557 153.555 8.13281 153.197 7.84943C152.839 7.56605 152.399 7.42436 151.877 7.42436C151.36 7.42436 150.923 7.56108 150.565 7.83452C150.212 8.10795 149.941 8.49574 149.752 8.99787C149.563 9.5 149.468 10.0916 149.468 10.7727ZM162.916 16.7163C162.185 16.7163 161.534 16.5895 160.962 16.3359C160.39 16.0774 159.938 15.6971 159.605 15.195C159.277 14.6879 159.113 14.0565 159.113 13.3008C159.113 12.6644 159.229 12.13 159.463 11.6974C159.697 11.2649 160.015 10.9169 160.418 10.6534C160.82 10.3899 161.278 10.1911 161.79 10.0568C162.307 9.92259 162.849 9.82812 163.416 9.77344C164.082 9.70384 164.619 9.6392 165.026 9.57955C165.434 9.51491 165.73 9.42045 165.914 9.29616C166.098 9.17187 166.19 8.98793 166.19 8.74432V8.69957C166.19 8.22727 166.041 7.86186 165.742 7.60334C165.449 7.34481 165.031 7.21555 164.489 7.21555C163.918 7.21555 163.463 7.34233 163.125 7.59588C162.787 7.84446 162.563 8.15767 162.454 8.53551L159.515 8.29688C159.665 7.60085 159.958 6.99929 160.395 6.49219C160.833 5.98011 161.397 5.58736 162.088 5.31392C162.784 5.03551 163.59 4.89631 164.504 4.89631C165.141 4.89631 165.75 4.97088 166.331 5.12003C166.918 5.26918 167.438 5.50035 167.89 5.81356C168.347 6.12678 168.708 6.52947 168.971 7.02166C169.235 7.50888 169.367 8.09304 169.367 8.77415V16.5H166.354V14.9116H166.264C166.08 15.2695 165.834 15.5852 165.526 15.8587C165.218 16.1271 164.847 16.3384 164.415 16.4925C163.982 16.6417 163.483 16.7163 162.916 16.7163ZM163.826 14.5238C164.293 14.5238 164.706 14.4318 165.064 14.2479C165.422 14.0589 165.703 13.8054 165.906 13.4872C166.11 13.169 166.212 12.8086 166.212 12.4059V11.1903C166.113 11.255 165.976 11.3146 165.802 11.3693C165.633 11.419 165.441 11.4663 165.228 11.511C165.014 11.5508 164.8 11.5881 164.586 11.6229C164.373 11.6527 164.179 11.68 164.005 11.7049C163.632 11.7596 163.306 11.8466 163.028 11.9659C162.749 12.0852 162.533 12.2468 162.379 12.4506C162.225 12.6495 162.148 12.8981 162.148 13.1964C162.148 13.6289 162.304 13.9595 162.618 14.1882C162.936 14.4119 163.339 14.5238 163.826 14.5238ZM177.007 16.7237C175.833 16.7237 174.824 16.4751 173.979 15.978C173.139 15.4759 172.492 14.7798 172.04 13.8899C171.593 13 171.369 11.9759 171.369 10.8175C171.369 9.64418 171.595 8.61506 172.047 7.73011C172.505 6.8402 173.154 6.14666 173.994 5.6495C174.834 5.14737 175.833 4.89631 176.992 4.89631C177.991 4.89631 178.866 5.07777 179.617 5.4407C180.367 5.80362 180.962 6.31321 181.399 6.96946C181.837 7.62571 182.078 8.39631 182.122 9.28125H179.125C179.04 8.70952 178.816 8.24964 178.453 7.90163C178.095 7.54865 177.626 7.37216 177.044 7.37216C176.552 7.37216 176.122 7.50639 175.754 7.77486C175.391 8.03835 175.108 8.42365 174.904 8.93075C174.7 9.43786 174.598 10.0518 174.598 10.7727C174.598 11.5036 174.697 12.125 174.896 12.6371C175.1 13.1491 175.386 13.5394 175.754 13.8079C176.122 14.0763 176.552 14.2106 177.044 14.2106C177.407 14.2106 177.733 14.136 178.021 13.9869C178.314 13.8377 178.555 13.6214 178.744 13.3381C178.938 13.0497 179.065 12.7042 179.125 12.3015H182.122C182.073 13.1765 181.834 13.9471 181.407 14.6133C180.984 15.2745 180.4 15.7915 179.654 16.1644C178.908 16.5373 178.026 16.7237 177.007 16.7237ZM187.035 13.2038L187.042 9.39311H187.505L191.174 5.04545H194.82L189.891 10.8026H189.138L187.035 13.2038ZM184.156 16.5V1.22727H187.333V16.5H184.156ZM191.316 16.5L187.945 11.511L190.063 9.26633L195.037 16.5H191.316Z" fill="#2A3647"/>
</svg>
