<svg width="36" height="35" viewBox="0 0 36 35" fill="none" xmlns="http://www.w3.org/2000/svg">
<rect x="1" y="0.5" width="34" height="34" rx="17" fill="#4E963D"/>
<path d="M11.0568 21.5V12.7727H14.108C14.7159 12.7727 15.2173 12.8778 15.6122 13.0881C16.0071 13.2955 16.3011 13.5753 16.4943 13.9276C16.6875 14.277 16.7841 14.6648 16.7841 15.0909C16.7841 15.4659 16.7173 15.7756 16.5838 16.0199C16.4531 16.2642 16.2798 16.4574 16.0639 16.5994C15.8509 16.7415 15.6193 16.8466 15.3693 16.9148V17C15.6364 17.017 15.9048 17.1108 16.1747 17.2812C16.4446 17.4517 16.6705 17.696 16.8523 18.0142C17.0341 18.3324 17.125 18.7216 17.125 19.1818C17.125 19.6193 17.0256 20.0128 16.8267 20.3622C16.6278 20.7116 16.3139 20.9886 15.8849 21.1932C15.456 21.3977 14.8977 21.5 14.2102 21.5H11.0568ZM12.1136 20.5625H14.2102C14.9006 20.5625 15.3906 20.429 15.6804 20.1619C15.973 19.892 16.1193 19.5653 16.1193 19.1818C16.1193 18.8864 16.044 18.6136 15.8935 18.3636C15.7429 18.1108 15.5284 17.9091 15.25 17.7585C14.9716 17.6051 14.642 17.5284 14.2614 17.5284H12.1136V20.5625ZM12.1136 16.608H14.0739C14.392 16.608 14.679 16.5455 14.9347 16.4205C15.1932 16.2955 15.3977 16.1193 15.5483 15.892C15.7017 15.6648 15.7784 15.3977 15.7784 15.0909C15.7784 14.7074 15.6449 14.3821 15.3778 14.1151C15.1108 13.8452 14.6875 13.7102 14.108 13.7102H12.1136V16.608ZM18.5717 21.5V20.733L23.2763 13.7102H18.5206V12.7727H24.5376V13.5398L19.8331 20.5625H24.5888V21.5H18.5717Z" fill="white"/>
<rect x="1" y="0.5" width="34" height="34" rx="17" stroke="white"/>
</svg>
