<svg width="45" height="45" viewBox="0 0 45 45" fill="none" xmlns="http://www.w3.org/2000/svg">
<rect x="1" y="1" width="43" height="43" rx="21.5" fill="#FFA800"/>
<path d="M13.4091 28V16.3636H17.4773C18.2879 16.3636 18.9564 16.5038 19.483 16.7841C20.0095 17.0606 20.4015 17.4337 20.6591 17.9034C20.9167 18.3693 21.0455 18.8864 21.0455 19.4545C21.0455 19.9545 20.9564 20.3674 20.7784 20.6932C20.6042 21.0189 20.3731 21.2765 20.0852 21.4659C19.8011 21.6553 19.4924 21.7955 19.1591 21.8864V22C19.5152 22.0227 19.8731 22.1477 20.233 22.375C20.5928 22.6023 20.8939 22.928 21.1364 23.3523C21.3788 23.7765 21.5 24.2955 21.5 24.9091C21.5 25.4924 21.3674 26.017 21.1023 26.483C20.8371 26.9489 20.4186 27.3182 19.8466 27.5909C19.2746 27.8636 18.5303 28 17.6136 28H13.4091ZM14.8182 26.75H17.6136C18.5341 26.75 19.1875 26.572 19.5739 26.2159C19.964 25.8561 20.1591 25.4205 20.1591 24.9091C20.1591 24.5152 20.0587 24.1515 19.858 23.8182C19.6572 23.4811 19.3712 23.2121 19 23.0114C18.6288 22.8068 18.1894 22.7045 17.6818 22.7045H14.8182V26.75ZM14.8182 21.4773H17.4318C17.8561 21.4773 18.2386 21.3939 18.5795 21.2273C18.9242 21.0606 19.197 20.8258 19.3977 20.5227C19.6023 20.2197 19.7045 19.8636 19.7045 19.4545C19.7045 18.9432 19.5265 18.5095 19.1705 18.1534C18.8144 17.7936 18.25 17.6136 17.4773 17.6136H14.8182V21.4773ZM23.429 28V26.9773L29.7017 17.6136H23.3608V16.3636H31.3835V17.3864L25.1108 26.75H31.4517V28H23.429Z" fill="white"/>
<rect x="1" y="1" width="43" height="43" rx="21.5" stroke="white" stroke-width="2"/>
</svg>
