<svg width="45" height="45" viewBox="0 0 45 45" fill="none" xmlns="http://www.w3.org/2000/svg">
<rect x="1" y="1" width="43" height="43" rx="21.5" fill="#9327FF"/>
<path d="M16.5 28H12.9091V16.3636H16.6591C17.7879 16.3636 18.7538 16.5966 19.5568 17.0625C20.3598 17.5246 20.9754 18.1894 21.4034 19.0568C21.8314 19.9205 22.0455 20.9545 22.0455 22.1591C22.0455 23.3712 21.8295 24.4148 21.3977 25.2898C20.9659 26.161 20.3371 26.8314 19.5114 27.3011C18.6856 27.767 17.6818 28 16.5 28ZM14.3182 26.75H16.4091C17.3712 26.75 18.1686 26.5644 18.8011 26.1932C19.4337 25.822 19.9053 25.2936 20.2159 24.608C20.5265 23.9223 20.6818 23.1061 20.6818 22.1591C20.6818 21.2197 20.5284 20.411 20.2216 19.733C19.9148 19.0511 19.4564 18.5284 18.8466 18.1648C18.2367 17.7973 17.4773 17.6136 16.5682 17.6136H14.3182V26.75ZM24.4091 28V16.3636H31.4318V17.6136H25.8182V21.5455H31.0682V22.7955H25.8182V26.75H31.5227V28H24.4091Z" fill="white"/>
<rect x="1" y="1" width="43" height="43" rx="21.5" stroke="white" stroke-width="2"/>
</svg>
