<svg width="52" height="16" viewBox="0 0 52 16" fill="none" xmlns="http://www.w3.org/2000/svg">
<path d="M5.74148 15.5H0.327415V0.227272H5.78622C7.32244 0.227272 8.64489 0.533025 9.75355 1.14453C10.8622 1.75106 11.7148 2.62358 12.3114 3.76207C12.913 4.90057 13.2138 6.26278 13.2138 7.84872C13.2138 9.43963 12.913 10.8068 12.3114 11.9503C11.7148 13.0937 10.8572 13.9712 9.73864 14.5827C8.625 15.1942 7.29261 15.5 5.74148 15.5ZM3.55646 12.7333H5.60724C6.56179 12.7333 7.3647 12.5643 8.01598 12.2262C8.67223 11.8832 9.16442 11.3537 9.49254 10.6378C9.82564 9.9169 9.99219 8.98722 9.99219 7.84872C9.99219 6.72017 9.82564 5.79794 9.49254 5.08203C9.16442 4.36612 8.67472 3.83913 8.02344 3.50106C7.37216 3.163 6.56925 2.99396 5.6147 2.99396H3.55646V12.7333ZM20.7215 15.7237C19.5631 15.7237 18.5613 15.4776 17.7162 14.9854C16.876 14.4883 16.2272 13.7972 15.7698 12.9123C15.3124 12.0224 15.0837 10.9908 15.0837 9.81747C15.0837 8.63423 15.3124 7.60014 15.7698 6.7152C16.2272 5.82528 16.876 5.13423 17.7162 4.64204C18.5613 4.14489 19.5631 3.89631 20.7215 3.89631C21.8799 3.89631 22.8792 4.14489 23.7194 4.64204C24.5645 5.13423 25.2158 5.82528 25.6732 6.7152C26.1306 7.60014 26.3593 8.63423 26.3593 9.81747C26.3593 10.9908 26.1306 12.0224 25.6732 12.9123C25.2158 13.7972 24.5645 14.4883 23.7194 14.9854C22.8792 15.4776 21.8799 15.7237 20.7215 15.7237ZM20.7364 13.2628C21.2634 13.2628 21.7034 13.1136 22.0564 12.8153C22.4094 12.5121 22.6753 12.0994 22.8543 11.5774C23.0383 11.0554 23.1302 10.4613 23.1302 9.7951C23.1302 9.12891 23.0383 8.5348 22.8543 8.01278C22.6753 7.49077 22.4094 7.07812 22.0564 6.77486C21.7034 6.47159 21.2634 6.31996 20.7364 6.31996C20.2045 6.31996 19.757 6.47159 19.3941 6.77486C19.0361 7.07812 18.7652 7.49077 18.5812 8.01278C18.4023 8.5348 18.3128 9.12891 18.3128 9.7951C18.3128 10.4613 18.4023 11.0554 18.5812 11.5774C18.7652 12.0994 19.0361 12.5121 19.3941 12.8153C19.757 13.1136 20.2045 13.2628 20.7364 13.2628ZM31.6018 8.87784V15.5H28.425V4.04545H31.4527V6.06641H31.5869C31.8405 5.40021 32.2655 4.87322 32.8621 4.48544C33.4587 4.09268 34.1821 3.89631 35.0322 3.89631C35.8277 3.89631 36.5212 4.07031 37.1128 4.41832C37.7045 4.76633 38.1643 5.26349 38.4925 5.9098C38.8206 6.55114 38.9846 7.31676 38.9846 8.20668V15.5H35.8078V8.77344C35.8128 8.07244 35.6338 7.52557 35.2709 7.13281C34.9079 6.73509 34.4083 6.53622 33.7719 6.53622C33.3444 6.53622 32.9665 6.6282 32.6384 6.81214C32.3153 6.99609 32.0617 7.26456 31.8778 7.61754C31.6988 7.96555 31.6068 8.38565 31.6018 8.87784ZM46.7086 15.7237C45.5304 15.7237 44.5162 15.4851 43.666 15.0078C42.8208 14.5256 42.1696 13.8445 41.7122 12.9645C41.2548 12.0795 41.0261 11.033 41.0261 9.82493C41.0261 8.64666 41.2548 7.61257 41.7122 6.72266C42.1696 5.83274 42.8134 5.1392 43.6436 4.64204C44.4789 4.14489 45.4583 3.89631 46.5819 3.89631C47.3375 3.89631 48.041 4.01811 48.6923 4.26172C49.3485 4.50035 49.9203 4.8608 50.4075 5.34304C50.8997 5.82528 51.2825 6.43182 51.5559 7.16264C51.8294 7.88849 51.9661 8.73864 51.9661 9.71307V10.5856H42.2939V8.61683H48.9757C48.9757 8.15945 48.8762 7.75426 48.6774 7.40128C48.4785 7.0483 48.2026 6.77237 47.8496 6.57351C47.5016 6.36967 47.0964 6.26776 46.6341 6.26776C46.1518 6.26776 45.7243 6.37962 45.3514 6.60334C44.9835 6.82209 44.6951 7.1179 44.4863 7.49077C44.2775 7.85866 44.1706 8.26882 44.1657 8.72124V10.593C44.1657 11.1598 44.2701 11.6495 44.4789 12.0621C44.6926 12.4748 44.9934 12.793 45.3812 13.0167C45.769 13.2404 46.2289 13.3523 46.7608 13.3523C47.1138 13.3523 47.437 13.3026 47.7303 13.2031C48.0236 13.1037 48.2747 12.9545 48.4835 12.7557C48.6923 12.5568 48.8514 12.3132 48.9608 12.0249L51.899 12.2188C51.7498 12.9247 51.4441 13.5412 50.9817 14.0682C50.5243 14.5902 49.9327 14.9979 49.2069 15.2912C48.486 15.5795 47.6532 15.7237 46.7086 15.7237Z" fill="#2A3647"/>
</svg>
