<svg width="114" height="21" viewBox="0 0 114 21" fill="none" xmlns="http://www.w3.org/2000/svg">
<path d="M3.55646 0.227272V15.5H0.327415V0.227272H3.55646ZM9.33034 8.87784V15.5H6.1535V4.04545H9.1812V6.06641H9.31543C9.56898 5.40021 9.99405 4.87322 10.5906 4.48544C11.1872 4.09268 11.9106 3.89631 12.7607 3.89631C13.5562 3.89631 14.2497 4.07031 14.8414 4.41832C15.433 4.76633 15.8928 5.26349 16.221 5.9098C16.5491 6.55114 16.7132 7.31676 16.7132 8.20668V15.5H13.5363V8.77344C13.5413 8.07244 13.3623 7.52557 12.9994 7.13281C12.6365 6.73509 12.1368 6.53622 11.5004 6.53622C11.0729 6.53622 10.695 6.6282 10.3669 6.81214C10.0438 6.99609 9.79022 7.26456 9.60627 7.61754C9.42729 7.96555 9.33532 8.38565 9.33034 8.87784ZM24.0773 19.7955V4.04545H27.2094V5.96946H27.3511C27.4903 5.66122 27.6917 5.34801 27.9552 5.02983C28.2236 4.70668 28.5716 4.43821 28.9992 4.22443C29.4317 4.00568 29.9687 3.89631 30.61 3.89631C31.4452 3.89631 32.2158 4.11506 32.9218 4.55256C33.6278 4.98509 34.192 5.63885 34.6146 6.51385C35.0372 7.38388 35.2485 8.47514 35.2485 9.78764C35.2485 11.0653 35.0422 12.1442 34.6295 13.0241C34.2219 13.8991 33.665 14.5629 32.9591 15.0153C32.2581 15.4627 31.4726 15.6864 30.6025 15.6864C29.9861 15.6864 29.4616 15.5845 29.029 15.3807C28.6015 15.1768 28.251 14.9208 27.9775 14.6126C27.7041 14.2994 27.4953 13.9837 27.3511 13.6655H27.2542V19.7955H24.0773ZM27.1871 9.77273C27.1871 10.4538 27.2815 11.0479 27.4704 11.555C27.6594 12.0621 27.9328 12.4574 28.2907 12.7408C28.6487 13.0192 29.0837 13.1584 29.5958 13.1584C30.1128 13.1584 30.5503 13.0167 30.9083 12.7333C31.2662 12.445 31.5372 12.0472 31.7211 11.5401C31.9101 11.0281 32.0045 10.4389 32.0045 9.77273C32.0045 9.11151 31.9126 8.52983 31.7286 8.0277C31.5447 7.52557 31.2737 7.13281 30.9157 6.84943C30.5578 6.56605 30.1178 6.42436 29.5958 6.42436C29.0787 6.42436 28.6412 6.56108 28.2833 6.83452C27.9303 7.10795 27.6594 7.49574 27.4704 7.99787C27.2815 8.5 27.1871 9.09162 27.1871 9.77273ZM37.3664 15.5V4.04545H40.4463V6.04403H40.5656C40.7744 5.3331 41.1249 4.79616 41.6171 4.43324C42.1093 4.06534 42.676 3.88139 43.3174 3.88139C43.4765 3.88139 43.648 3.89133 43.8319 3.91122C44.0159 3.93111 44.1775 3.95845 44.3167 3.99325V6.81214C44.1675 6.7674 43.9612 6.72763 43.6977 6.69283C43.4342 6.65803 43.1931 6.64062 42.9743 6.64062C42.507 6.64062 42.0894 6.74254 41.7215 6.94638C41.3586 7.14524 41.0702 7.42365 40.8564 7.7816C40.6476 8.13956 40.5432 8.5522 40.5432 9.01953V15.5H37.3664ZM50.6014 15.7237C49.443 15.7237 48.4412 15.4776 47.5961 14.9854C46.7559 14.4883 46.1071 13.7972 45.6497 12.9123C45.1923 12.0224 44.9636 10.9908 44.9636 9.81747C44.9636 8.63423 45.1923 7.60014 45.6497 6.7152C46.1071 5.82528 46.7559 5.13423 47.5961 4.64204C48.4412 4.14489 49.443 3.89631 50.6014 3.89631C51.7598 3.89631 52.7591 4.14489 53.5993 4.64204C54.4444 5.13423 55.0957 5.82528 55.5531 6.7152C56.0105 7.60014 56.2392 8.63423 56.2392 9.81747C56.2392 10.9908 56.0105 12.0224 55.5531 12.9123C55.0957 13.7972 54.4444 14.4883 53.5993 14.9854C52.7591 15.4776 51.7598 15.7237 50.6014 15.7237ZM50.6163 13.2628C51.1433 13.2628 51.5833 13.1136 51.9363 12.8153C52.2892 12.5121 52.5552 12.0994 52.7342 11.5774C52.9181 11.0554 53.0101 10.4613 53.0101 9.7951C53.0101 9.12891 52.9181 8.5348 52.7342 8.01278C52.5552 7.49077 52.2892 7.07812 51.9363 6.77486C51.5833 6.47159 51.1433 6.31996 50.6163 6.31996C50.0843 6.31996 49.6369 6.47159 49.274 6.77486C48.916 7.07812 48.6451 7.49077 48.4611 8.01278C48.2821 8.5348 48.1926 9.12891 48.1926 9.7951C48.1926 10.4613 48.2821 11.0554 48.4611 11.5774C48.6451 12.0994 48.916 12.5121 49.274 12.8153C49.6369 13.1136 50.0843 13.2628 50.6163 13.2628ZM63.4654 20.0341C62.4363 20.0341 61.5538 19.8924 60.818 19.609C60.0872 19.3306 59.5055 18.9503 59.073 18.468C58.6404 17.9858 58.3596 17.4439 58.2303 16.8423L61.1685 16.4471C61.258 16.6758 61.3997 16.8896 61.5936 17.0884C61.7875 17.2873 62.0435 17.4464 62.3617 17.5657C62.6848 17.69 63.0776 17.7521 63.54 17.7521C64.231 17.7521 64.8002 17.5831 65.2477 17.245C65.7001 16.9119 65.9263 16.3526 65.9263 15.5671V13.4716H65.7921C65.6529 13.7898 65.4441 14.0906 65.1657 14.3739C64.8873 14.6573 64.5293 14.8885 64.0918 15.0675C63.6543 15.2464 63.1323 15.3359 62.5257 15.3359C61.6657 15.3359 60.8826 15.1371 60.1767 14.7393C59.4757 14.3366 58.9164 13.7227 58.4988 12.8974C58.0861 12.0671 57.8798 11.0181 57.8798 9.75035C57.8798 8.45277 58.0911 7.36896 58.5137 6.49893C58.9363 5.62891 59.498 4.97763 60.199 4.5451C60.905 4.11257 61.6781 3.89631 62.5183 3.89631C63.1596 3.89631 63.6966 4.00568 64.1291 4.22443C64.5616 4.43821 64.9096 4.70668 65.1731 5.02983C65.4416 5.34801 65.6479 5.66122 65.7921 5.96946H65.9114V4.04545H69.0659V15.6119C69.0659 16.5863 68.8272 17.4016 68.35 18.0579C67.8727 18.7141 67.2115 19.2063 66.3663 19.5344C65.5261 19.8675 64.5591 20.0341 63.4654 20.0341ZM63.5325 12.9496C64.0446 12.9496 64.4771 12.8228 64.8301 12.5692C65.188 12.3107 65.4615 11.9428 65.6504 11.4656C65.8443 10.9833 65.9412 10.4066 65.9412 9.73544C65.9412 9.06428 65.8468 8.4826 65.6578 7.99041C65.4689 7.49325 65.1955 7.10795 64.8375 6.83452C64.4796 6.56108 64.0446 6.42436 63.5325 6.42436C63.0105 6.42436 62.5705 6.56605 62.2125 6.84943C61.8546 7.12784 61.5836 7.51562 61.3997 8.01278C61.2157 8.50994 61.1238 9.08416 61.1238 9.73544C61.1238 10.3967 61.2157 10.9684 61.3997 11.4506C61.5886 11.9279 61.8596 12.2983 62.2125 12.5618C62.5705 12.8203 63.0105 12.9496 63.5325 12.9496ZM71.5939 15.5V4.04545H74.6738V6.04403H74.7931C75.002 5.3331 75.3525 4.79616 75.8446 4.43324C76.3368 4.06534 76.9036 3.88139 77.5449 3.88139C77.704 3.88139 77.8755 3.89133 78.0595 3.91122C78.2434 3.93111 78.405 3.95845 78.5442 3.99325V6.81214C78.3951 6.7674 78.1887 6.72763 77.9252 6.69283C77.6618 6.65803 77.4206 6.64062 77.2019 6.64062C76.7346 6.64062 76.3169 6.74254 75.949 6.94638C75.5861 7.14524 75.2978 7.42365 75.084 7.7816C74.8752 8.13956 74.7708 8.5522 74.7708 9.01953V15.5H71.5939ZM84.8737 15.7237C83.6954 15.7237 82.6812 15.4851 81.8311 15.0078C80.9859 14.5256 80.3346 13.8445 79.8772 12.9645C79.4198 12.0795 79.1911 11.033 79.1911 9.82493C79.1911 8.64666 79.4198 7.61257 79.8772 6.72266C80.3346 5.83274 80.9784 5.1392 81.8087 4.64204C82.6439 4.14489 83.6233 3.89631 84.7469 3.89631C85.5026 3.89631 86.2061 4.01811 86.8573 4.26172C87.5136 4.50035 88.0853 4.8608 88.5725 5.34304C89.0647 5.82528 89.4475 6.43182 89.721 7.16264C89.9944 7.88849 90.1311 8.73864 90.1311 9.71307V10.5856H80.4589V8.61683H87.1407C87.1407 8.15945 87.0413 7.75426 86.8424 7.40128C86.6436 7.0483 86.3676 6.77237 86.0146 6.57351C85.6666 6.36967 85.2615 6.26776 84.7991 6.26776C84.3169 6.26776 83.8893 6.37962 83.5164 6.60334C83.1485 6.82209 82.8602 7.1179 82.6514 7.49077C82.4426 7.85866 82.3357 8.26882 82.3307 8.72124V10.593C82.3307 11.1598 82.4351 11.6495 82.6439 12.0621C82.8577 12.4748 83.1585 12.793 83.5463 13.0167C83.934 13.2404 84.3939 13.3523 84.9259 13.3523C85.2789 13.3523 85.602 13.3026 85.8953 13.2031C86.1887 13.1037 86.4397 12.9545 86.6485 12.7557C86.8573 12.5568 87.0164 12.3132 87.1258 12.0249L90.064 12.2188C89.9149 12.9247 89.6091 13.5412 89.1468 14.0682C88.6894 14.5902 88.0977 14.9979 87.3719 15.2912C86.651 15.5795 85.8183 15.7237 84.8737 15.7237ZM101.735 7.31179L98.8264 7.49077C98.7767 7.24219 98.6698 7.01847 98.5058 6.8196C98.3417 6.61577 98.1254 6.45419 97.857 6.33487C97.5935 6.21058 97.2778 6.14844 96.9099 6.14844C96.4177 6.14844 96.0026 6.25284 95.6645 6.46165C95.3264 6.66548 95.1574 6.93892 95.1574 7.28196C95.1574 7.5554 95.2668 7.78658 95.4855 7.9755C95.7043 8.16442 96.0796 8.31605 96.6116 8.4304L98.6847 8.84801C99.7984 9.0767 100.629 9.4446 101.176 9.9517C101.722 10.4588 101.996 11.125 101.996 11.9503C101.996 12.701 101.775 13.3597 101.332 13.9265C100.895 14.4933 100.293 14.9357 99.5274 15.2539C98.7668 15.5671 97.8893 15.7237 96.895 15.7237C95.3786 15.7237 94.1705 15.408 93.2707 14.7766C92.3758 14.1403 91.8513 13.2752 91.6972 12.1815L94.8218 12.0174C94.9163 12.4798 95.145 12.8327 95.5079 13.0763C95.8708 13.315 96.3357 13.4343 96.9024 13.4343C97.4593 13.4343 97.9067 13.3274 98.2448 13.1136C98.5878 12.8949 98.7618 12.614 98.7668 12.271C98.7618 11.9826 98.64 11.7464 98.4014 11.5625C98.1627 11.3736 97.7948 11.2294 97.2977 11.13L95.314 10.7347C94.1954 10.511 93.3627 10.1232 92.8158 9.57138C92.2739 9.01953 92.0029 8.31605 92.0029 7.46094C92.0029 6.72514 92.2018 6.09126 92.5995 5.5593C93.0022 5.02734 93.5665 4.61719 94.2923 4.32883C95.0232 4.04048 95.8783 3.89631 96.8577 3.89631C98.3044 3.89631 99.4429 4.20206 100.273 4.81356C101.108 5.42507 101.596 6.25781 101.735 7.31179ZM113.527 7.31179L110.618 7.49077C110.569 7.24219 110.462 7.01847 110.298 6.8196C110.134 6.61577 109.917 6.45419 109.649 6.33487C109.385 6.21058 109.07 6.14844 108.702 6.14844C108.21 6.14844 107.795 6.25284 107.456 6.46165C107.118 6.66548 106.949 6.93892 106.949 7.28196C106.949 7.5554 107.059 7.78658 107.278 7.9755C107.496 8.16442 107.872 8.31605 108.404 8.4304L110.477 8.84801C111.59 9.0767 112.421 9.4446 112.968 9.9517C113.514 10.4588 113.788 11.125 113.788 11.9503C113.788 12.701 113.567 13.3597 113.124 13.9265C112.687 14.4933 112.085 14.9357 111.319 15.2539C110.559 15.5671 109.681 15.7237 108.687 15.7237C107.171 15.7237 105.963 15.408 105.063 14.7766C104.168 14.1403 103.643 13.2752 103.489 12.1815L106.614 12.0174C106.708 12.4798 106.937 12.8327 107.3 13.0763C107.663 13.315 108.128 13.4343 108.694 13.4343C109.251 13.4343 109.699 13.3274 110.037 13.1136C110.38 12.8949 110.554 12.614 110.559 12.271C110.554 11.9826 110.432 11.7464 110.193 11.5625C109.955 11.3736 109.587 11.2294 109.09 11.13L107.106 10.7347C105.987 10.511 105.155 10.1232 104.608 9.57138C104.066 9.01953 103.795 8.31605 103.795 7.46094C103.795 6.72514 103.994 6.09126 104.392 5.5593C104.794 5.02734 105.358 4.61719 106.084 4.32883C106.815 4.04048 107.67 3.89631 108.65 3.89631C110.096 3.89631 111.235 4.20206 112.065 4.81356C112.9 5.42507 113.388 6.25781 113.527 7.31179Z" fill="#2A3647"/>
</svg>
