<svg width="127" height="27" viewBox="0 0 127 27" fill="none" xmlns="http://www.w3.org/2000/svg">
<rect x="0.5" width="126" height="27" rx="8" fill="#0038FF"/>
<path d="M26.9091 7.36364H28.5909L32.5455 17.0227H32.6818L36.6364 7.36364H38.3182V19H37V10.1591H36.8864L33.25 19H31.9773L28.3409 10.1591H28.2273L28.2273 19H26.9091L26.9091 7.36364ZM43.5298 19.2045C42.9768 19.2045 42.4749 19.1004 42.0241 18.892C41.5734 18.6799 41.2154 18.375 40.9503 17.9773C40.6851 17.5758 40.5526 17.0909 40.5526 16.5227C40.5526 16.0227 40.651 15.6174 40.848 15.3068C41.045 14.9924 41.3082 14.7462 41.6378 14.5682C41.9673 14.3902 42.331 14.2576 42.7287 14.1705C43.1302 14.0795 43.5336 14.0076 43.9389 13.9545C44.4692 13.8864 44.8991 13.8352 45.2287 13.8011C45.562 13.7633 45.8045 13.7008 45.956 13.6136C46.1113 13.5265 46.1889 13.375 46.1889 13.1591V13.1136C46.1889 12.553 46.0355 12.1174 45.7287 11.8068C45.4257 11.4962 44.9654 11.3409 44.348 11.3409C43.7079 11.3409 43.206 11.4811 42.8423 11.7614C42.4787 12.0417 42.223 12.3409 42.0753 12.6591L40.8026 12.2045C41.0298 11.6742 41.3329 11.2614 41.7116 10.9659C42.0942 10.6667 42.5109 10.4583 42.9616 10.3409C43.4162 10.2197 43.8632 10.1591 44.3026 10.1591C44.5829 10.1591 44.9048 10.1932 45.2685 10.2614C45.6359 10.3258 45.9901 10.4602 46.331 10.6648C46.6757 10.8693 46.9616 11.178 47.1889 11.5909C47.4162 12.0038 47.5298 12.5568 47.5298 13.25V19H46.1889V17.8182H46.1207C46.0298 18.0076 45.8783 18.2102 45.6662 18.4261C45.4541 18.642 45.1719 18.8258 44.8196 18.9773C44.4673 19.1288 44.0374 19.2045 43.5298 19.2045ZM43.7344 18C44.2647 18 44.7116 17.8958 45.0753 17.6875C45.4427 17.4792 45.7192 17.2102 45.9048 16.8807C46.0942 16.5511 46.1889 16.2045 46.1889 15.8409V14.6136C46.1321 14.6818 46.0071 14.7443 45.8139 14.8011C45.6245 14.8542 45.4048 14.9015 45.1548 14.9432C44.9086 14.9811 44.6681 15.0152 44.4332 15.0455C44.2022 15.072 44.0147 15.0947 43.8707 15.1136C43.5223 15.1591 43.1965 15.233 42.8935 15.3352C42.5942 15.4337 42.3518 15.5833 42.1662 15.7841C41.9844 15.9811 41.8935 16.25 41.8935 16.5909C41.8935 17.0568 42.0658 17.4091 42.4105 17.6477C42.759 17.8826 43.2003 18 43.7344 18ZM49.9773 19V10.2727H51.2727V11.5909H51.3636C51.5227 11.1591 51.8106 10.8087 52.2273 10.5398C52.6439 10.2708 53.1136 10.1364 53.6364 10.1364C53.7348 10.1364 53.858 10.1383 54.0057 10.142C54.1534 10.1458 54.2652 10.1515 54.3409 10.1591V11.5227C54.2955 11.5114 54.1913 11.4943 54.0284 11.4716C53.8693 11.4451 53.7008 11.4318 53.5227 11.4318C53.0985 11.4318 52.7197 11.5208 52.3864 11.6989C52.0568 11.8731 51.7955 12.1155 51.6023 12.4261C51.4129 12.733 51.3182 13.0833 51.3182 13.4773V19H49.9773ZM57.1804 15.8182L57.1577 14.1591H57.4304L61.2486 10.2727L62.9077 10.2727L58.8395 14.3864H58.7259L57.1804 15.8182ZM55.9304 19V7.36364H57.2713V19H55.9304ZM61.4759 19L58.0668 14.6818L59.0213 13.75L63.1804 19H61.4759ZM67.9332 19.1818C67.0923 19.1818 66.367 18.9962 65.7571 18.625C65.151 18.25 64.6832 17.7273 64.3537 17.0568C64.0279 16.3826 63.8651 15.5985 63.8651 14.7045C63.8651 13.8106 64.0279 13.0227 64.3537 12.3409C64.6832 11.6553 65.1416 11.1212 65.7287 10.7386C66.3196 10.3523 67.009 10.1591 67.7969 10.1591C68.2514 10.1591 68.7003 10.2348 69.1435 10.3864C69.5866 10.5379 69.9901 10.7841 70.3537 11.125C70.7173 11.4621 71.0071 11.9091 71.223 12.4659C71.4389 13.0227 71.5469 13.7083 71.5469 14.5227V15.0909H64.8196V13.9318H70.1832C70.1832 13.4394 70.0848 13 69.8878 12.6136C69.6946 12.2273 69.4181 11.9223 69.0582 11.6989C68.7022 11.4754 68.2817 11.3636 67.7969 11.3636C67.2628 11.3636 66.8007 11.4962 66.4105 11.7614C66.0241 12.0227 65.7268 12.3636 65.5185 12.7841C65.3101 13.2045 65.206 13.6553 65.206 14.1364V14.9091C65.206 15.5682 65.3196 16.1269 65.5469 16.5852C65.7779 17.0398 66.098 17.3864 66.5071 17.625C66.9162 17.8598 67.3916 17.9773 67.9332 17.9773C68.2855 17.9773 68.6037 17.928 68.8878 17.8295C69.1757 17.7273 69.4238 17.5758 69.6321 17.375C69.8404 17.1705 70.0014 16.9167 70.1151 16.6136L71.4105 16.9773C71.2741 17.4167 71.045 17.803 70.723 18.1364C70.401 18.4659 70.0033 18.7235 69.5298 18.9091C69.0563 19.0909 68.5241 19.1818 67.9332 19.1818ZM77.3821 10.2727V11.4091H72.8594V10.2727H77.3821ZM74.1776 8.18182H75.5185V16.5C75.5185 16.8788 75.5734 17.1629 75.6832 17.3523C75.7969 17.5379 75.9408 17.6629 76.1151 17.7273C76.2931 17.7879 76.4806 17.8182 76.6776 17.8182C76.8253 17.8182 76.9465 17.8106 77.0412 17.7955C77.1359 17.7765 77.2116 17.7614 77.2685 17.75L77.5412 18.9545C77.4503 18.9886 77.3234 19.0227 77.1605 19.0568C76.9976 19.0947 76.7912 19.1136 76.5412 19.1136C76.1624 19.1136 75.7912 19.0322 75.4276 18.8693C75.0677 18.7064 74.7685 18.4583 74.5298 18.125C74.295 17.7917 74.1776 17.3712 74.1776 16.8636V8.18182ZM79.3991 19V10.2727H80.7401V19H79.3991ZM80.081 8.81818C79.8196 8.81818 79.5942 8.72917 79.4048 8.55114C79.2192 8.37311 79.1264 8.15909 79.1264 7.90909C79.1264 7.65909 79.2192 7.44508 79.4048 7.26705C79.5942 7.08902 79.8196 7 80.081 7C80.3423 7 80.5658 7.08902 80.7514 7.26705C80.9408 7.44508 81.0355 7.65909 81.0355 7.90909C81.0355 8.15909 80.9408 8.37311 80.7514 8.55114C80.5658 8.72917 80.3423 8.81818 80.081 8.81818ZM84.5369 13.75V19H83.196V10.2727L84.4915 10.2727V11.6364H84.6051C84.8097 11.1932 85.1203 10.8371 85.5369 10.5682C85.9536 10.2955 86.4915 10.1591 87.1506 10.1591C87.7415 10.1591 88.2585 10.2803 88.7017 10.5227C89.1449 10.7614 89.4896 11.125 89.7358 11.6136C89.982 12.0985 90.1051 12.7121 90.1051 13.4545V19H88.7642V13.5455C88.7642 12.8598 88.5862 12.3258 88.2301 11.9432C87.8741 11.5568 87.3854 11.3636 86.7642 11.3636C86.3362 11.3636 85.9536 11.4564 85.6165 11.642C85.2831 11.8277 85.0199 12.0985 84.8267 12.4545C84.6335 12.8106 84.5369 13.2424 84.5369 13.75ZM96.0781 22.4545C95.4304 22.4545 94.8736 22.3712 94.4077 22.2045C93.9418 22.0417 93.5535 21.8258 93.2429 21.5568C92.9361 21.2917 92.6918 21.0076 92.5099 20.7045L93.5781 19.9545C93.6993 20.1136 93.8527 20.2955 94.0384 20.5C94.224 20.7083 94.4777 20.8883 94.7997 21.0398C95.1255 21.1951 95.5516 21.2727 96.0781 21.2727C96.7827 21.2727 97.3641 21.1023 97.8224 20.7614C98.2808 20.4205 98.5099 19.8864 98.5099 19.1591V17.3864H98.3963C98.2978 17.5455 98.1577 17.7424 97.9759 17.9773C97.7978 18.2083 97.5402 18.4148 97.2031 18.5966C96.8698 18.7746 96.419 18.8636 95.8509 18.8636C95.1463 18.8636 94.5137 18.697 93.9531 18.3636C93.3963 18.0303 92.955 17.5455 92.6293 16.9091C92.3073 16.2727 92.1463 15.5 92.1463 14.5909C92.1463 13.697 92.3035 12.9186 92.6179 12.2557C92.9323 11.589 93.3698 11.0739 93.9304 10.7102C94.491 10.3428 95.1387 10.1591 95.8736 10.1591C96.4418 10.1591 96.8925 10.2538 97.2259 10.4432C97.563 10.6288 97.8205 10.8409 97.9986 11.0795C98.1804 11.3144 98.3205 11.5076 98.419 11.6591H98.5554V10.2727H99.8509V19.25C99.8509 20 99.6804 20.6098 99.3395 21.0795C99.0024 21.553 98.5478 21.8996 97.9759 22.1193C97.4077 22.3428 96.7751 22.4545 96.0781 22.4545ZM96.0327 17.6591C96.5705 17.6591 97.0251 17.536 97.3963 17.2898C97.7675 17.0436 98.0497 16.6894 98.2429 16.2273C98.4361 15.7652 98.5327 15.2121 98.5327 14.5682C98.5327 13.9394 98.438 13.3845 98.2486 12.9034C98.0592 12.4223 97.7789 12.0455 97.4077 11.7727C97.0365 11.5 96.5781 11.3636 96.0327 11.3636C95.4645 11.3636 94.991 11.5076 94.6122 11.7955C94.2372 12.0833 93.955 12.4697 93.7656 12.9545C93.58 13.4394 93.4872 13.9773 93.4872 14.5682C93.4872 15.1742 93.5819 15.7102 93.7713 16.1761C93.9645 16.6383 94.2486 17.0019 94.6236 17.267C95.0024 17.5284 95.4721 17.6591 96.0327 17.6591Z" fill="white"/>
</svg>
