<svg width="35" height="35" viewBox="0 0 35 35" fill="none" xmlns="http://www.w3.org/2000/svg">
<rect x="0.5" y="0.5" width="34" height="34" rx="17" fill="#FF5C00"/>
<path d="M9.05682 12.7727H10.3182L13.2841 20.017H13.3864L16.3523 12.7727H17.6136V21.5H16.625V14.8693H16.5398L13.8125 21.5H12.858L10.1307 14.8693H10.0455V21.5H9.05682V12.7727ZM19.7326 21.5V12.7727H22.7837C23.3917 12.7727 23.8931 12.8778 24.288 13.0881C24.6829 13.2955 24.9769 13.5753 25.1701 13.9276C25.3633 14.277 25.4599 14.6648 25.4599 15.0909C25.4599 15.4659 25.3931 15.7756 25.2596 16.0199C25.1289 16.2642 24.9556 16.4574 24.7397 16.5994C24.5266 16.7415 24.2951 16.8466 24.0451 16.9148V17C24.3121 17.017 24.5806 17.1108 24.8505 17.2812C25.1204 17.4517 25.3462 17.696 25.5281 18.0142C25.7099 18.3324 25.8008 18.7216 25.8008 19.1818C25.8008 19.6193 25.7013 20.0128 25.5025 20.3622C25.3036 20.7116 24.9897 20.9886 24.5607 21.1932C24.1317 21.3977 23.5735 21.5 22.886 21.5H19.7326ZM20.7894 20.5625H22.886C23.5763 20.5625 24.0664 20.429 24.3562 20.1619C24.6488 19.892 24.7951 19.5653 24.7951 19.1818C24.7951 18.8864 24.7198 18.6136 24.5692 18.3636C24.4187 18.1108 24.2042 17.9091 23.9258 17.7585C23.6474 17.6051 23.3178 17.5284 22.9371 17.5284H20.7894V20.5625ZM20.7894 16.608H22.7496C23.0678 16.608 23.3548 16.5455 23.6104 16.4205C23.869 16.2955 24.0735 16.1193 24.2241 15.892C24.3775 15.6648 24.4542 15.3977 24.4542 15.0909C24.4542 14.7074 24.3207 14.3821 24.0536 14.1151C23.7866 13.8452 23.3633 13.7102 22.7837 13.7102H20.7894V16.608Z" fill="white"/>
<rect x="0.5" y="0.5" width="34" height="34" rx="17" stroke="white"/>
</svg>
