<svg width="45" height="45" viewBox="0 0 45 45" fill="none" xmlns="http://www.w3.org/2000/svg">
<rect x="1" y="1" width="43" height="43" rx="21.5" fill="#0223CF"/>
<path d="M11.4091 16.3636H13.0909L17.0455 26.0227H17.1818L21.1364 16.3636H22.8182V28H21.5V19.1591H21.3864L17.75 28H16.4773L12.8409 19.1591H12.7273V28H11.4091V16.3636ZM25.6435 28V16.3636H29.7116C30.5223 16.3636 31.1908 16.5038 31.7173 16.7841C32.2438 17.0606 32.6359 17.4337 32.8935 17.9034C33.151 18.3693 33.2798 18.8864 33.2798 19.4545C33.2798 19.9545 33.1908 20.3674 33.0128 20.6932C32.8385 21.0189 32.6075 21.2765 32.3196 21.4659C32.0355 21.6553 31.7268 21.7955 31.3935 21.8864V22C31.7495 22.0227 32.1075 22.1477 32.4673 22.375C32.8272 22.6023 33.1283 22.928 33.3707 23.3523C33.6132 23.7765 33.7344 24.2955 33.7344 24.9091C33.7344 25.4924 33.6018 26.017 33.3366 26.483C33.0715 26.9489 32.6529 27.3182 32.081 27.5909C31.509 27.8636 30.7647 28 29.848 28H25.6435ZM27.0526 26.75H29.848C30.7685 26.75 31.4219 26.572 31.8082 26.2159C32.1984 25.8561 32.3935 25.4205 32.3935 24.9091C32.3935 24.5152 32.2931 24.1515 32.0923 23.8182C31.8916 23.4811 31.6056 23.2121 31.2344 23.0114C30.8632 22.8068 30.4238 22.7045 29.9162 22.7045H27.0526V26.75ZM27.0526 21.4773H29.6662C30.0904 21.4773 30.473 21.3939 30.8139 21.2273C31.1586 21.0606 31.4313 20.8258 31.6321 20.5227C31.8366 20.2197 31.9389 19.8636 31.9389 19.4545C31.9389 18.9432 31.7609 18.5095 31.4048 18.1534C31.0488 17.7936 30.4844 17.6136 29.7116 17.6136H27.0526V21.4773Z" fill="white"/>
<rect x="1" y="1" width="43" height="43" rx="21.5" stroke="white" stroke-width="2"/>
</svg>
