<svg width="21" height="14" viewBox="0 0 21 14" fill="none" xmlns="http://www.w3.org/2000/svg">
<path d="M19.0478 13.353H0L0.162032 12.3088C0.558825 9.16255 2.07379 6.26391 4.43041 4.14197C6.78702 2.02002 9.82811 0.816288 12.9986 0.750483C14.6383 0.736134 16.265 1.04191 17.7875 1.65066C17.9008 1.69359 18.0043 1.75894 18.0917 1.84281C18.1791 1.92667 18.2488 2.02732 18.2964 2.13872C18.344 2.25013 18.3686 2.37 18.3688 2.49114C18.3689 2.61229 18.3446 2.73223 18.2974 2.84377C18.2501 2.95531 18.1808 3.05616 18.0936 3.14027C18.0064 3.22439 17.9031 3.29004 17.79 3.33329C17.6768 3.37654 17.5561 3.39651 17.435 3.39199C17.3139 3.38747 17.195 3.35856 17.0854 3.30699C15.7907 2.76545 14.402 2.48405 12.9986 2.47883C10.4471 2.54241 7.99185 3.46608 6.03111 5.10003C4.07036 6.73399 2.71909 8.9824 2.19644 11.4806H19.1018C19.3406 11.4806 19.5695 11.5755 19.7383 11.7443C19.9072 11.9131 20.002 12.1421 20.002 12.3808C20.002 12.6195 19.9072 12.8485 19.7383 13.0173C19.5695 13.1861 19.3406 13.281 19.1018 13.281L19.0478 13.353Z" fill="white"/>
</svg>
