<svg width="17" height="17" viewBox="0 0 17 17" fill="none" xmlns="http://www.w3.org/2000/svg">
<path d="M8.74762 16.8502C7.14527 16.8502 5.5789 16.3751 4.2466 15.4848C2.9143 14.5946 1.87589 13.3293 1.2627 11.8489C0.649506 10.3686 0.489067 8.73961 0.80167 7.16805C1.11427 5.59649 1.88588 4.15292 3.01891 3.01989C4.15194 1.88685 5.59551 1.11525 7.16707 0.802647C8.73863 0.490044 10.3676 0.650483 11.848 1.26368C13.3284 1.87687 14.5936 2.91527 15.4839 4.24758C16.3741 5.57988 16.8492 7.14625 16.8492 8.74859C16.8445 10.8958 15.9894 12.9537 14.4711 14.4721C12.9528 15.9904 10.8948 16.8455 8.74762 16.8502ZM8.74762 2.44734C7.50135 2.44734 6.28306 2.8169 5.24683 3.50929C4.21059 4.20168 3.40294 5.1858 2.92601 6.33721C2.44909 7.48861 2.3243 8.75558 2.56744 9.97791C2.81057 11.2002 3.41071 12.323 4.29196 13.2043C5.1732 14.0855 6.29598 14.6856 7.5183 14.9288C8.74063 15.1719 10.0076 15.0471 11.159 14.5702C12.3104 14.0933 13.2945 13.2856 13.9869 12.2494C14.6793 11.2131 15.0489 9.99487 15.0489 8.74859C15.0489 7.0774 14.385 5.47465 13.2033 4.29293C12.0216 3.11122 10.4188 2.44734 8.74762 2.44734Z" fill="white"/>
</svg>
