<svg width="15" height="16" viewBox="0 0 15 16" fill="none" xmlns="http://www.w3.org/2000/svg">
<path d="M7.79845 0.949585C6.40813 0.950566 5.04781 1.35398 3.88174 2.11113C2.71567 2.86828 1.79369 3.94679 1.22714 5.21644C0.80694 6.13742 0.591935 7.13872 0.597012 8.15102C0.597012 9.57533 1.01937 10.9677 1.81067 12.1519C2.60198 13.3362 3.72669 14.2592 5.04258 14.8043C6.35847 15.3493 7.80644 15.492 9.20338 15.2141C10.6003 14.9362 11.8835 14.2503 12.8906 13.2432C13.8978 12.2361 14.5836 10.9529 14.8615 9.55595C15.1394 8.15901 14.9968 6.71104 14.4517 5.39515C13.9067 4.07926 12.9836 2.95455 11.7994 2.16325C10.6151 1.37194 9.22276 0.949585 7.79845 0.949585ZM11.3992 9.12322H8.77064V11.7517C8.77064 12.0096 8.66822 12.2569 8.48589 12.4392C8.30357 12.6215 8.05629 12.7239 7.79845 12.7239C7.54061 12.7239 7.29333 12.6215 7.111 12.4392C6.92868 12.2569 6.82626 12.0096 6.82626 11.7517V9.0512H4.19773C4.07006 9.0512 3.94364 9.02606 3.82569 8.9772C3.70774 8.92834 3.60056 8.85673 3.51029 8.76645C3.42001 8.67618 3.3484 8.569 3.29954 8.45105C3.25068 8.3331 3.22554 8.20668 3.22554 8.07901C3.22466 7.90546 3.27114 7.73495 3.35997 7.58585C3.44879 7.43675 3.5766 7.3147 3.72964 7.23284C3.86866 7.14295 4.03236 7.09888 4.19773 7.10681H6.82626V4.5503C6.82626 4.29246 6.92868 4.04518 7.111 3.86286C7.29333 3.68054 7.54061 3.57811 7.79845 3.57811C8.05629 3.57811 8.30357 3.68054 8.48589 3.86286C8.66822 4.04518 8.77064 4.29246 8.77064 4.5503V7.25084H11.3992C11.657 7.25084 11.9043 7.35327 12.0866 7.53559C12.2689 7.71791 12.3714 7.9652 12.3714 8.22304C12.3714 8.48088 12.2689 8.72816 12.0866 8.91048C11.9043 9.0928 11.657 9.19523 11.3992 9.19523V9.12322Z" fill="white"/>
</svg>
