<svg width="35" height="35" viewBox="0 0 35 35" fill="none" xmlns="http://www.w3.org/2000/svg">
<rect x="0.5" y="0.5" width="34" height="34" rx="17" fill="#2A3647"/>
<path d="M13.4773 19.9659V14.3409H14.4318V19.9659H13.4773ZM11.142 17.6307V16.6761H16.767V17.6307H11.142ZM18.4034 21.5V20.733L21.2841 17.5795C21.6222 17.2102 21.9006 16.8892 22.1193 16.6165C22.3381 16.3409 22.5 16.0824 22.6051 15.8409C22.7131 15.5966 22.767 15.3409 22.767 15.0739C22.767 14.767 22.6932 14.5014 22.5455 14.277C22.4006 14.0526 22.2017 13.8793 21.9489 13.7571C21.696 13.6349 21.4119 13.5739 21.0966 13.5739C20.7614 13.5739 20.4688 13.6435 20.2188 13.7827C19.9716 13.919 19.7798 14.1108 19.6435 14.358C19.5099 14.6051 19.4432 14.8949 19.4432 15.2273H18.4375C18.4375 14.7159 18.5554 14.267 18.7912 13.8807C19.027 13.4943 19.348 13.1932 19.7543 12.9773C20.1634 12.7614 20.6222 12.6534 21.1307 12.6534C21.642 12.6534 22.0952 12.7614 22.4901 12.9773C22.8849 13.1932 23.1946 13.4844 23.419 13.8509C23.6435 14.2173 23.7557 14.625 23.7557 15.0739C23.7557 15.3949 23.6974 15.7088 23.581 16.0156C23.4673 16.3196 23.2685 16.6591 22.9844 17.0341C22.7031 17.4062 22.3125 17.8608 21.8125 18.3977L19.8523 20.4943V20.5625H23.9091V21.5H18.4034Z" fill="white"/>
<rect x="0.5" y="0.5" width="34" height="34" rx="17" stroke="white"/>
</svg>
