<svg width="35" height="35" viewBox="0 0 35 35" fill="none" xmlns="http://www.w3.org/2000/svg">
<rect x="0.5" y="0.5" width="34" height="34" rx="17" fill="#2A3647"/>
<path d="M12.9773 19.9659V14.3409H13.9318V19.9659H12.9773ZM10.642 17.6307V16.6761H16.267V17.6307H10.642ZM21.1218 21.6193C20.5593 21.6193 20.0579 21.5227 19.6175 21.3295C19.18 21.1364 18.832 20.8679 18.5735 20.5241C18.3178 20.1776 18.1786 19.7756 18.1559 19.3182H19.2298C19.2525 19.5994 19.3491 19.8423 19.5195 20.0469C19.69 20.2486 19.913 20.4048 20.1886 20.5156C20.4641 20.6264 20.7695 20.6818 21.1048 20.6818C21.4798 20.6818 21.8121 20.6165 22.1019 20.4858C22.3917 20.3551 22.619 20.1733 22.7837 19.9403C22.9485 19.7074 23.0309 19.4375 23.0309 19.1307C23.0309 18.8097 22.9513 18.527 22.7923 18.2827C22.6332 18.0355 22.4002 17.8423 22.0934 17.7031C21.7866 17.5639 21.4116 17.4943 20.9684 17.4943H20.2695V16.5568H20.9684C21.315 16.5568 21.619 16.4943 21.8803 16.3693C22.1445 16.2443 22.3505 16.0682 22.4982 15.8409C22.6488 15.6136 22.7241 15.3466 22.7241 15.0398C22.7241 14.7443 22.6587 14.4872 22.5281 14.2685C22.3974 14.0497 22.2127 13.8793 21.9741 13.7571C21.7383 13.6349 21.4599 13.5739 21.1388 13.5739C20.8377 13.5739 20.5536 13.6293 20.2866 13.7401C20.0224 13.848 19.8065 14.0057 19.6388 14.2131C19.4712 14.4176 19.3803 14.6648 19.3661 14.9545H18.3434C18.3604 14.4972 18.4982 14.0966 18.7567 13.7528C19.0153 13.4062 19.3533 13.1364 19.771 12.9432C20.1914 12.75 20.6531 12.6534 21.1559 12.6534C21.6957 12.6534 22.1587 12.7628 22.5451 12.9815C22.9315 13.1974 23.2283 13.483 23.4357 13.8381C23.6431 14.1932 23.7468 14.5767 23.7468 14.9886C23.7468 15.4801 23.6175 15.8991 23.359 16.2457C23.1033 16.5923 22.7553 16.8324 22.315 16.9659V17.0341C22.8661 17.125 23.2965 17.3594 23.6062 17.7372C23.9158 18.1122 24.0707 18.5767 24.0707 19.1307C24.0707 19.6051 23.9414 20.0312 23.6829 20.4091C23.4272 20.7841 23.0778 21.0795 22.6346 21.2955C22.1914 21.5114 21.6871 21.6193 21.1218 21.6193Z" fill="white"/>
<rect x="0.5" y="0.5" width="34" height="34" rx="17" stroke="white"/>
</svg>
