<svg width="36" height="35" viewBox="0 0 36 35" fill="none" xmlns="http://www.w3.org/2000/svg">
<rect x="1" y="0.5" width="34" height="34" rx="17" fill="#32DAFF"/>
<path d="M11.0568 21.5V12.7727H14.0057C14.6875 12.7727 15.2472 12.8892 15.6847 13.1222C16.1222 13.3523 16.446 13.669 16.6562 14.0724C16.8665 14.4759 16.9716 14.9347 16.9716 15.4489C16.9716 15.9631 16.8665 16.419 16.6562 16.8168C16.446 17.2145 16.1236 17.527 15.6889 17.7543C15.2543 17.9787 14.6989 18.0909 14.0227 18.0909H11.6364V17.1364H13.9886C14.4545 17.1364 14.8295 17.0682 15.1136 16.9318C15.4006 16.7955 15.608 16.6023 15.7358 16.3523C15.8665 16.0994 15.9318 15.7983 15.9318 15.4489C15.9318 15.0994 15.8665 14.794 15.7358 14.5327C15.6051 14.2713 15.3963 14.0696 15.1094 13.9276C14.8224 13.7827 14.4432 13.7102 13.9716 13.7102H12.1136V21.5H11.0568ZM15.1648 17.5795L17.3125 21.5H16.0852L13.9716 17.5795H15.1648ZM23.5053 14.9545C23.4542 14.5227 23.2468 14.1875 22.8832 13.9489C22.5195 13.7102 22.0735 13.5909 21.5451 13.5909C21.1587 13.5909 20.8207 13.6534 20.5309 13.7784C20.244 13.9034 20.0195 14.0753 19.8576 14.294C19.6985 14.5128 19.619 14.7614 19.619 15.0398C19.619 15.2727 19.6744 15.473 19.7852 15.6406C19.8988 15.8054 20.0437 15.9432 20.2198 16.054C20.396 16.1619 20.5806 16.2514 20.7738 16.3224C20.967 16.3906 21.1445 16.446 21.3065 16.4886L22.1928 16.7273C22.4201 16.7869 22.6729 16.8693 22.9513 16.9744C23.2326 17.0795 23.5011 17.223 23.7567 17.4048C24.0153 17.5838 24.2283 17.8139 24.396 18.0952C24.5636 18.3764 24.6474 18.7216 24.6474 19.1307C24.6474 19.6023 24.5238 20.0284 24.2766 20.4091C24.0323 20.7898 23.6744 21.0923 23.2028 21.3168C22.734 21.5412 22.1644 21.6534 21.494 21.6534C20.869 21.6534 20.3278 21.5526 19.8704 21.3509C19.4158 21.1491 19.0579 20.8679 18.7965 20.5071C18.538 20.1463 18.3917 19.7273 18.3576 19.25H19.4485C19.4769 19.5795 19.5877 19.8523 19.7809 20.0682C19.9769 20.2812 20.2241 20.4403 20.5224 20.5455C20.8235 20.6477 21.1474 20.6989 21.494 20.6989C21.8974 20.6989 22.2596 20.6335 22.5806 20.5028C22.9016 20.3693 23.1559 20.1847 23.3434 19.9489C23.5309 19.7102 23.6246 19.4318 23.6246 19.1136C23.6246 18.8239 23.5437 18.5881 23.3817 18.4062C23.2198 18.2244 23.0067 18.0767 22.7425 17.9631C22.4783 17.8494 22.1928 17.75 21.886 17.6648L20.8121 17.358C20.1303 17.1619 19.5906 16.8821 19.1928 16.5185C18.7951 16.1548 18.5962 15.679 18.5962 15.0909C18.5962 14.6023 18.7283 14.1761 18.9925 13.8125C19.2596 13.446 19.6175 13.1619 20.0664 12.9602C20.5181 12.7557 21.0224 12.6534 21.5792 12.6534C22.1417 12.6534 22.6417 12.7543 23.0792 12.956C23.5167 13.1548 23.8633 13.4276 24.119 13.7741C24.3775 14.1207 24.5138 14.5142 24.5281 14.9545H23.5053Z" fill="white"/>
<rect x="1" y="0.5" width="34" height="34" rx="17" stroke="white"/>
</svg>
