<svg width="92" height="27" viewBox="0 0 92 27" fill="none" xmlns="http://www.w3.org/2000/svg">
<rect x="0.5" width="91" height="27" rx="8" fill="#FC71FF"/>
<path d="M33.2727 10.2727C33.2045 9.69697 32.928 9.25 32.4432 8.93182C31.9583 8.61364 31.3636 8.45455 30.6591 8.45455C30.1439 8.45455 29.6932 8.53788 29.3068 8.70455C28.9242 8.87121 28.625 9.10038 28.4091 9.39205C28.197 9.68371 28.0909 10.0152 28.0909 10.3864C28.0909 10.697 28.1648 10.964 28.3125 11.1875C28.464 11.4072 28.6572 11.5909 28.892 11.7386C29.1269 11.8826 29.3731 12.0019 29.6307 12.0966C29.8883 12.1875 30.125 12.2614 30.3409 12.3182L31.5227 12.6364C31.8258 12.7159 32.1629 12.8258 32.5341 12.9659C32.9091 13.1061 33.267 13.2973 33.608 13.5398C33.9527 13.7784 34.2367 14.0852 34.4602 14.4602C34.6837 14.8352 34.7955 15.2955 34.7955 15.8409C34.7955 16.4697 34.6307 17.0379 34.3011 17.5455C33.9754 18.053 33.4981 18.4564 32.8693 18.7557C32.2443 19.0549 31.4848 19.2045 30.5909 19.2045C29.7576 19.2045 29.036 19.0701 28.4261 18.8011C27.8201 18.5322 27.3428 18.1572 26.9943 17.6761C26.6496 17.1951 26.4545 16.6364 26.4091 16H27.8636C27.9015 16.4394 28.0492 16.803 28.3068 17.0909C28.5682 17.375 28.8977 17.5871 29.2955 17.7273C29.697 17.8636 30.1288 17.9318 30.5909 17.9318C31.1288 17.9318 31.6117 17.8447 32.0398 17.6705C32.4678 17.4924 32.8068 17.2462 33.0568 16.9318C33.3068 16.6136 33.4318 16.2424 33.4318 15.8182C33.4318 15.4318 33.3239 15.1174 33.108 14.875C32.892 14.6326 32.608 14.4356 32.2557 14.2841C31.9034 14.1326 31.5227 14 31.1136 13.8864L29.6818 13.4773C28.7727 13.2159 28.053 12.8428 27.5227 12.358C26.9924 11.8731 26.7273 11.2386 26.7273 10.4545C26.7273 9.80303 26.9034 9.23485 27.2557 8.75C27.6117 8.26136 28.089 7.88258 28.6875 7.61364C29.2898 7.34091 29.9621 7.20455 30.7045 7.20455C31.4545 7.20455 32.1212 7.33901 32.7045 7.60795C33.2879 7.87311 33.75 8.23674 34.0909 8.69886C34.4356 9.16098 34.6174 9.68561 34.6364 10.2727L33.2727 10.2727ZM39.4986 19.2045C38.9455 19.2045 38.4437 19.1004 37.9929 18.892C37.5421 18.6799 37.1842 18.375 36.919 17.9773C36.6539 17.5758 36.5213 17.0909 36.5213 16.5227C36.5213 16.0227 36.6198 15.6174 36.8168 15.3068C37.0137 14.9924 37.277 14.7462 37.6065 14.5682C37.9361 14.3902 38.2997 14.2576 38.6974 14.1705C39.099 14.0795 39.5024 14.0076 39.9077 13.9545C40.438 13.8864 40.8679 13.8352 41.1974 13.8011C41.5308 13.7633 41.7732 13.7008 41.9247 13.6136C42.08 13.5265 42.1577 13.375 42.1577 13.1591V13.1136C42.1577 12.553 42.0043 12.1174 41.6974 11.8068C41.3944 11.4962 40.9342 11.3409 40.3168 11.3409C39.6766 11.3409 39.1747 11.4811 38.8111 11.7614C38.4474 12.0417 38.1918 12.3409 38.044 12.6591L36.7713 12.2045C36.9986 11.6742 37.3016 11.2614 37.6804 10.9659C38.063 10.6667 38.4796 10.4583 38.9304 10.3409C39.3849 10.2197 39.8319 10.1591 40.2713 10.1591C40.5516 10.1591 40.8736 10.1932 41.2372 10.2614C41.6046 10.3258 41.9588 10.4602 42.2997 10.6648C42.6444 10.8693 42.9304 11.178 43.1577 11.5909C43.3849 12.0038 43.4986 12.5568 43.4986 13.25V19H42.1577V17.8182H42.0895C41.9986 18.0076 41.8471 18.2102 41.6349 18.4261C41.4228 18.642 41.1406 18.8258 40.7884 18.9773C40.4361 19.1288 40.0062 19.2045 39.4986 19.2045ZM39.7031 18C40.2334 18 40.6804 17.8958 41.044 17.6875C41.4115 17.4792 41.688 17.2102 41.8736 16.8807C42.063 16.5511 42.1577 16.2045 42.1577 15.8409V14.6136C42.1009 14.6818 41.9759 14.7443 41.7827 14.8011C41.5933 14.8542 41.3736 14.9015 41.1236 14.9432C40.8774 14.9811 40.6368 15.0152 40.402 15.0455C40.1709 15.072 39.9834 15.0947 39.8395 15.1136C39.491 15.1591 39.1652 15.233 38.8622 15.3352C38.563 15.4337 38.3205 15.5833 38.1349 15.7841C37.9531 15.9811 37.8622 16.25 37.8622 16.5909C37.8622 17.0568 38.0346 17.4091 38.3793 17.6477C38.7277 17.8826 39.169 18 39.7031 18ZM47.2869 7.36364V19H45.946V7.36364H47.2869ZM53.402 19.1818C52.5611 19.1818 51.8357 18.9962 51.2259 18.625C50.6198 18.25 50.152 17.7273 49.8224 17.0568C49.4967 16.3826 49.3338 15.5985 49.3338 14.7045C49.3338 13.8106 49.4967 13.0227 49.8224 12.3409C50.152 11.6553 50.6103 11.1212 51.1974 10.7386C51.7884 10.3523 52.4777 10.1591 53.2656 10.1591C53.7202 10.1591 54.169 10.2348 54.6122 10.3864C55.0554 10.5379 55.4588 10.7841 55.8224 11.125C56.1861 11.4621 56.4759 11.9091 56.6918 12.4659C56.9077 13.0227 57.0156 13.7083 57.0156 14.5227V15.0909L50.2884 15.0909V13.9318L55.652 13.9318C55.652 13.4394 55.5535 13 55.3565 12.6136C55.1634 12.2273 54.8868 11.9223 54.527 11.6989C54.1709 11.4754 53.7505 11.3636 53.2656 11.3636C52.7315 11.3636 52.2694 11.4962 51.8793 11.7614C51.4929 12.0227 51.1955 12.3636 50.9872 12.7841C50.7789 13.2045 50.6747 13.6553 50.6747 14.1364V14.9091C50.6747 15.5682 50.7884 16.1269 51.0156 16.5852C51.2467 17.0398 51.5668 17.3864 51.9759 17.625C52.3849 17.8598 52.8603 17.9773 53.402 17.9773C53.7543 17.9773 54.0724 17.928 54.3565 17.8295C54.6444 17.7273 54.8925 17.5758 55.1009 17.375C55.3092 17.1705 55.4702 16.9167 55.5838 16.6136L56.8793 16.9773C56.7429 17.4167 56.5137 17.803 56.1918 18.1364C55.8698 18.4659 55.4721 18.7235 54.9986 18.9091C54.5251 19.0909 53.9929 19.1818 53.402 19.1818ZM65.2372 12.2273L64.0327 12.5682C63.9569 12.3674 63.8452 12.1723 63.6974 11.983C63.5535 11.7898 63.3565 11.6307 63.1065 11.5057C62.8565 11.3807 62.5365 11.3182 62.1463 11.3182C61.6122 11.3182 61.1671 11.4413 60.8111 11.6875C60.4588 11.9299 60.2827 12.2386 60.2827 12.6136C60.2827 12.947 60.4039 13.2102 60.6463 13.4034C60.8887 13.5966 61.2675 13.7576 61.7827 13.8864L63.0781 14.2045C63.8584 14.3939 64.4399 14.6837 64.8224 15.0739C65.205 15.4602 65.3963 15.9583 65.3963 16.5682C65.3963 17.0682 65.2524 17.5152 64.9645 17.9091C64.6804 18.303 64.2827 18.6136 63.7713 18.8409C63.2599 19.0682 62.6652 19.1818 61.9872 19.1818C61.0971 19.1818 60.3603 18.9886 59.777 18.6023C59.1937 18.2159 58.8243 17.6515 58.669 16.9091L59.9418 16.5909C60.063 17.0606 60.2921 17.4129 60.6293 17.6477C60.9702 17.8826 61.4152 18 61.9645 18C62.5895 18 63.0857 17.8674 63.4531 17.6023C63.8243 17.3333 64.0099 17.0114 64.0099 16.6364C64.0099 16.3333 63.9039 16.0795 63.6918 15.875C63.4796 15.6667 63.1539 15.5114 62.7145 15.4091L61.2599 15.0682C60.4607 14.8788 59.8736 14.5852 59.4986 14.1875C59.1274 13.786 58.9418 13.2841 58.9418 12.6818C58.9418 12.1894 59.08 11.7538 59.3565 11.375C59.6368 10.9962 60.0175 10.6989 60.4986 10.483C60.9834 10.267 61.5327 10.1591 62.1463 10.1591C63.0099 10.1591 63.688 10.3485 64.1804 10.7273C64.6766 11.1061 65.0289 11.6061 65.2372 12.2273Z" fill="white"/>
</svg>
