<svg width="45" height="45" viewBox="0 0 45 45" fill="none" xmlns="http://www.w3.org/2000/svg">
<rect x="1" y="1" width="43" height="43" rx="21.5" fill="#CB02CF"/>
<path d="M20.2727 19.2727C20.2045 18.697 19.928 18.25 19.4432 17.9318C18.9583 17.6136 18.3636 17.4545 17.6591 17.4545C17.1439 17.4545 16.6932 17.5379 16.3068 17.7045C15.9242 17.8712 15.625 18.1004 15.4091 18.392C15.197 18.6837 15.0909 19.0152 15.0909 19.3864C15.0909 19.697 15.1648 19.964 15.3125 20.1875C15.464 20.4072 15.6572 20.5909 15.892 20.7386C16.1269 20.8826 16.3731 21.0019 16.6307 21.0966C16.8883 21.1875 17.125 21.2614 17.3409 21.3182L18.5227 21.6364C18.8258 21.7159 19.1629 21.8258 19.5341 21.9659C19.9091 22.1061 20.267 22.2973 20.608 22.5398C20.9527 22.7784 21.2367 23.0852 21.4602 23.4602C21.6837 23.8352 21.7955 24.2955 21.7955 24.8409C21.7955 25.4697 21.6307 26.0379 21.3011 26.5455C20.9754 27.053 20.4981 27.4564 19.8693 27.7557C19.2443 28.0549 18.4848 28.2045 17.5909 28.2045C16.7576 28.2045 16.036 28.0701 15.4261 27.8011C14.8201 27.5322 14.3428 27.1572 13.9943 26.6761C13.6496 26.1951 13.4545 25.6364 13.4091 25H14.8636C14.9015 25.4394 15.0492 25.803 15.3068 26.0909C15.5682 26.375 15.8977 26.5871 16.2955 26.7273C16.697 26.8636 17.1288 26.9318 17.5909 26.9318C18.1288 26.9318 18.6117 26.8447 19.0398 26.6705C19.4678 26.4924 19.8068 26.2462 20.0568 25.9318C20.3068 25.6136 20.4318 25.2424 20.4318 24.8182C20.4318 24.4318 20.3239 24.1174 20.108 23.875C19.892 23.6326 19.608 23.4356 19.2557 23.2841C18.9034 23.1326 18.5227 23 18.1136 22.8864L16.6818 22.4773C15.7727 22.2159 15.053 21.8428 14.5227 21.358C13.9924 20.8731 13.7273 20.2386 13.7273 19.4545C13.7273 18.803 13.9034 18.2348 14.2557 17.75C14.6117 17.2614 15.089 16.8826 15.6875 16.6136C16.2898 16.3409 16.9621 16.2045 17.7045 16.2045C18.4545 16.2045 19.1212 16.339 19.7045 16.608C20.2879 16.8731 20.75 17.2367 21.0909 17.6989C21.4356 18.161 21.6174 18.6856 21.6364 19.2727H20.2727ZM24.1122 28V16.3636H31.0895V17.6136H25.5213V21.5455H30.5668V22.7955H25.5213V28H24.1122Z" fill="white"/>
<rect x="1" y="1" width="43" height="43" rx="21.5" stroke="white" stroke-width="2"/>
</svg>
