<svg width="35" height="35" viewBox="0 0 35 35" fill="none" xmlns="http://www.w3.org/2000/svg">
<rect x="0.5" y="0.5" width="34" height="34" rx="17" fill="#0190E0"/>
<path d="M13.8295 14.9545C13.7784 14.5227 13.571 14.1875 13.2074 13.9489C12.8438 13.7102 12.3977 13.5909 11.8693 13.5909C11.483 13.5909 11.1449 13.6534 10.8551 13.7784C10.5682 13.9034 10.3438 14.0753 10.1818 14.294C10.0227 14.5128 9.94318 14.7614 9.94318 15.0398C9.94318 15.2727 9.99858 15.473 10.1094 15.6406C10.223 15.8054 10.3679 15.9432 10.544 16.054C10.7202 16.1619 10.9048 16.2514 11.098 16.3224C11.2912 16.3906 11.4688 16.446 11.6307 16.4886L12.517 16.7273C12.7443 16.7869 12.9972 16.8693 13.2756 16.9744C13.5568 17.0795 13.8253 17.223 14.081 17.4048C14.3395 17.5838 14.5526 17.8139 14.7202 18.0952C14.8878 18.3764 14.9716 18.7216 14.9716 19.1307C14.9716 19.6023 14.848 20.0284 14.6009 20.4091C14.3565 20.7898 13.9986 21.0923 13.527 21.3168C13.0582 21.5412 12.4886 21.6534 11.8182 21.6534C11.1932 21.6534 10.652 21.5526 10.1946 21.3509C9.74006 21.1491 9.3821 20.8679 9.12074 20.5071C8.86222 20.1463 8.71591 19.7273 8.68182 19.25H9.77273C9.80114 19.5795 9.91193 19.8523 10.1051 20.0682C10.3011 20.2812 10.5483 20.4403 10.8466 20.5455C11.1477 20.6477 11.4716 20.6989 11.8182 20.6989C12.2216 20.6989 12.5838 20.6335 12.9048 20.5028C13.2259 20.3693 13.4801 20.1847 13.6676 19.9489C13.8551 19.7102 13.9489 19.4318 13.9489 19.1136C13.9489 18.8239 13.8679 18.5881 13.706 18.4062C13.544 18.2244 13.331 18.0767 13.0668 17.9631C12.8026 17.8494 12.517 17.75 12.2102 17.6648L11.1364 17.358C10.4545 17.1619 9.91477 16.8821 9.51705 16.5185C9.11932 16.1548 8.92045 15.679 8.92045 15.0909C8.92045 14.6023 9.05256 14.1761 9.31676 13.8125C9.58381 13.446 9.94176 13.1619 10.3906 12.9602C10.8423 12.7557 11.3466 12.6534 11.9034 12.6534C12.4659 12.6534 12.9659 12.7543 13.4034 12.956C13.8409 13.1548 14.1875 13.4276 14.4432 13.7741C14.7017 14.1207 14.8381 14.5142 14.8523 14.9545H13.8295ZM16.7092 12.7727H17.9705L20.9364 20.017H21.0387L24.0046 12.7727H25.266V21.5H24.2773V14.8693H24.1921L21.4648 21.5H20.5103L17.783 14.8693H17.6978V21.5H16.7092V12.7727Z" fill="white"/>
<rect x="0.5" y="0.5" width="34" height="34" rx="17" stroke="white"/>
</svg>
