<svg width="56" height="16" viewBox="0 0 56 16" fill="none" xmlns="http://www.w3.org/2000/svg">
<path d="M0.745739 2.88956V0.227272H13.2891V2.88956H8.61328V15.5H5.42152V2.88956H0.745739ZM18.8094 15.7237C17.651 15.7237 16.6492 15.4776 15.8041 14.9854C14.9639 14.4883 14.3151 13.7972 13.8577 12.9123C13.4003 12.0224 13.1716 10.9908 13.1716 9.81747C13.1716 8.63423 13.4003 7.60014 13.8577 6.7152C14.3151 5.82528 14.9639 5.13423 15.8041 4.64204C16.6492 4.14489 17.651 3.89631 18.8094 3.89631C19.9678 3.89631 20.9671 4.14489 21.8073 4.64204C22.6524 5.13423 23.3037 5.82528 23.7611 6.7152C24.2185 7.60014 24.4472 8.63423 24.4472 9.81747C24.4472 10.9908 24.2185 12.0224 23.7611 12.9123C23.3037 13.7972 22.6524 14.4883 21.8073 14.9854C20.9671 15.4776 19.9678 15.7237 18.8094 15.7237ZM18.8243 13.2628C19.3513 13.2628 19.7913 13.1136 20.1443 12.8153C20.4972 12.5121 20.7632 12.0994 20.9422 11.5774C21.1262 11.0554 21.2181 10.4613 21.2181 9.7951C21.2181 9.12891 21.1262 8.5348 20.9422 8.01278C20.7632 7.49077 20.4972 7.07812 20.1443 6.77486C19.7913 6.47159 19.3513 6.31996 18.8243 6.31996C18.2923 6.31996 17.8449 6.47159 17.482 6.77486C17.124 7.07812 16.8531 7.49077 16.6691 8.01278C16.4901 8.5348 16.4007 9.12891 16.4007 9.7951C16.4007 10.4613 16.4901 11.0554 16.6691 11.5774C16.8531 12.0994 17.124 12.5121 17.482 12.8153C17.8449 13.1136 18.2923 13.2628 18.8243 13.2628ZM35.5941 15.6864C34.7241 15.6864 33.9361 15.4627 33.2301 15.0153C32.5291 14.5629 31.9723 13.8991 31.5597 13.0241C31.152 12.1442 30.9482 11.0653 30.9482 9.78764C30.9482 8.47514 31.1594 7.38388 31.582 6.51385C32.0046 5.63885 32.5664 4.98509 33.2674 4.55256C33.9734 4.11506 34.7464 3.89631 35.5866 3.89631C36.228 3.89631 36.7624 4.00568 37.19 4.22443C37.6225 4.43821 37.9705 4.70668 38.234 5.02983C38.5025 5.34801 38.7063 5.66122 38.8455 5.96946H38.9425V0.227272H42.1119V15.5H38.9798V13.6655H38.8455C38.6964 13.9837 38.4851 14.2994 38.2116 14.6126C37.9432 14.9208 37.5927 15.1768 37.1602 15.3807C36.7326 15.5845 36.2106 15.6864 35.5941 15.6864ZM36.6009 13.1584C37.1129 13.1584 37.5455 13.0192 37.8984 12.7408C38.2564 12.4574 38.5298 12.0621 38.7188 11.555C38.9126 11.0479 39.0096 10.4538 39.0096 9.77273C39.0096 9.09162 38.9151 8.5 38.7262 7.99787C38.5373 7.49574 38.2638 7.10795 37.9059 6.83452C37.5479 6.56108 37.1129 6.42436 36.6009 6.42436C36.0788 6.42436 35.6388 6.56605 35.2809 6.84943C34.9229 7.13281 34.652 7.52557 34.468 8.0277C34.2841 8.52983 34.1921 9.11151 34.1921 9.77273C34.1921 10.4389 34.2841 11.0281 34.468 11.5401C34.657 12.0472 34.9279 12.445 35.2809 12.7333C35.6388 13.0167 36.0788 13.1584 36.6009 13.1584ZM49.8992 15.7237C48.7409 15.7237 47.7391 15.4776 46.8939 14.9854C46.0537 14.4883 45.4049 13.7972 44.9475 12.9123C44.4901 12.0224 44.2615 10.9908 44.2615 9.81747C44.2615 8.63423 44.4901 7.60014 44.9475 6.7152C45.4049 5.82528 46.0537 5.13423 46.8939 4.64204C47.7391 4.14489 48.7409 3.89631 49.8992 3.89631C51.0576 3.89631 52.0569 4.14489 52.8971 4.64204C53.7423 5.13423 54.3936 5.82528 54.8509 6.7152C55.3083 7.60014 55.537 8.63423 55.537 9.81747C55.537 10.9908 55.3083 12.0224 54.8509 12.9123C54.3936 13.7972 53.7423 14.4883 52.8971 14.9854C52.0569 15.4776 51.0576 15.7237 49.8992 15.7237ZM49.9142 13.2628C50.4411 13.2628 50.8811 13.1136 51.2341 12.8153C51.5871 12.5121 51.8531 12.0994 52.032 11.5774C52.216 11.0554 52.308 10.4613 52.308 9.7951C52.308 9.12891 52.216 8.5348 52.032 8.01278C51.8531 7.49077 51.5871 7.07812 51.2341 6.77486C50.8811 6.47159 50.4411 6.31996 49.9142 6.31996C49.3822 6.31996 48.9347 6.47159 48.5718 6.77486C48.2139 7.07812 47.9429 7.49077 47.759 8.01278C47.58 8.5348 47.4905 9.12891 47.4905 9.7951C47.4905 10.4613 47.58 11.0554 47.759 11.5774C47.9429 12.0994 48.2139 12.5121 48.5718 12.8153C48.9347 13.1136 49.3822 13.2628 49.9142 13.2628Z" fill="#2A3647"/>
</svg>
