<svg width="32" height="41" viewBox="0 0 32 41" fill="none" xmlns="http://www.w3.org/2000/svg">
<path d="M22.926 0.992188H15.8379V9.14696H22.926V0.992188Z" fill="#2A3647"/>
<path d="M15.8392 15.7793H22.9273V27.2803C22.9597 30.0478 22.1721 32.7624 20.6646 35.0791C19.1761 37.33 16.3027 40.0081 10.9866 40.0081C5.19613 40.0081 1.8211 37.2698 0 35.7692L4.47096 30.2542C6.24844 31.7055 7.96049 32.8994 11.0138 32.8994C13.3256 32.8994 14.2471 31.9574 14.7869 31.1359C15.5207 29.9949 15.9003 28.6604 15.8774 27.3022L15.8392 15.7793Z" fill="#2A3647"/>
<path d="M12.2248 10.6309H5.13672V17.7505H12.2248V10.6309Z" fill="#29ABE2"/>
<path d="M26.6399 36.6675C26.6399 38.1845 25.8711 39.0006 24.797 39.0006C23.7229 39.0006 23.0195 38.0312 23.0195 36.7442C23.0195 35.4571 23.7447 34.4385 24.857 34.4385C25.9693 34.4385 26.6399 35.4407 26.6399 36.6675ZM23.8428 36.7277C23.8428 37.6423 24.2082 38.316 24.8352 38.316C25.4622 38.316 25.8166 37.604 25.8166 36.673C25.8166 35.8569 25.4895 35.0902 24.8352 35.0902C24.1809 35.0902 23.8428 35.8296 23.8428 36.7277Z" fill="#2A3647"/>
<path d="M28.0469 34.5039V38.9291H27.2617V34.5039H28.0469Z" fill="#2A3647"/>
<path d="M28.8984 38.9291V34.5039H29.7708L30.7086 36.3276C30.9501 36.8045 31.1648 37.2945 31.352 37.7954C31.3029 37.2477 31.2811 36.6179 31.2811 35.9169V34.5039H32.0008V38.9291H31.1884L30.2397 37.067C29.9885 36.5778 29.7647 36.075 29.5691 35.5609C29.5691 36.1086 29.6072 36.7274 29.6072 37.4887V38.9236L28.8984 38.9291Z" fill="#2A3647"/>
</svg>
